<svg width="284" height="202" viewBox="0 0 284 202" fill="none" xmlns="http://www.w3.org/2000/svg">
<path d="M10.5625 5.83984C9.59375 5.68359 8.8125 5.60547 8.21875 5.60547C6.65625 5.60547 5.875 6.42578 5.875 8.06641V9.32031H8.58203V10.9961H5.875V22H3.70703V10.9961H1.70312V9.32031H3.70703V7.9375C3.71484 6.58594 4.09375 5.55078 4.84375 4.83203C5.59375 4.11328 6.66016 3.75391 8.04297 3.75391C8.83203 3.75391 10.3945 3.99219 12.7305 4.46875V22H10.5625V5.83984ZM22.983 22.2344C21.2642 22.2344 19.8658 21.6719 18.7877 20.5469C17.7095 19.4141 17.1705 17.9023 17.1705 16.0117V15.6133C17.1705 14.3555 17.4088 13.2344 17.8853 12.25C18.3697 11.2578 19.0416 10.4844 19.9009 9.92969C20.7681 9.36719 21.7056 9.08594 22.7134 9.08594C24.3619 9.08594 25.6431 9.62891 26.5572 10.7148C27.4713 11.8008 27.9283 13.3555 27.9283 15.3789V16.2812H19.3384C19.3697 17.5312 19.733 18.543 20.4283 19.3164C21.1314 20.082 22.022 20.4648 23.1002 20.4648C23.8658 20.4648 24.5142 20.3086 25.0455 19.9961C25.5767 19.6836 26.0416 19.2695 26.44 18.7539L27.7642 19.7852C26.7017 21.418 25.108 22.2344 22.983 22.2344ZM22.7134 10.8672C21.8384 10.8672 21.1041 11.1875 20.5103 11.8281C19.9166 12.4609 19.5494 13.3516 19.4088 14.5H25.7603V14.3359C25.6978 13.2344 25.4009 12.3828 24.8697 11.7812C24.3384 11.1719 23.6197 10.8672 22.7134 10.8672ZM36.1417 13.9492L38.9542 9.32031H41.4855L37.337 15.5898L41.6144 22H39.1066L36.1769 17.2539L33.2472 22H30.7277L35.005 15.5898L30.8566 9.32031H33.3644L36.1417 13.9492ZM49.7458 15.6367H44.027V13.8672H49.7458V15.6367ZM60.6897 18.6367C60.6897 18.0508 60.467 17.5977 60.0217 17.2773C59.5842 16.9492 58.8147 16.668 57.7131 16.4336C56.6194 16.1992 55.7483 15.918 55.0998 15.5898C54.4592 15.2617 53.9827 14.8711 53.6702 14.418C53.3655 13.9648 53.2131 13.4258 53.2131 12.8008C53.2131 11.7617 53.6506 10.8828 54.5256 10.1641C55.4084 9.44531 56.5334 9.08594 57.9006 9.08594C59.3381 9.08594 60.5022 9.45703 61.3928 10.1992C62.2913 10.9414 62.7405 11.8906 62.7405 13.0469H60.5608C60.5608 12.4531 60.3069 11.9414 59.7991 11.5117C59.2991 11.082 58.6663 10.8672 57.9006 10.8672C57.1116 10.8672 56.4944 11.0391 56.0491 11.3828C55.6038 11.7266 55.3811 12.1758 55.3811 12.7305C55.3811 13.2539 55.5881 13.6484 56.0022 13.9141C56.4163 14.1797 57.1623 14.4336 58.2405 14.6758C59.3264 14.918 60.2053 15.207 60.8772 15.543C61.5491 15.8789 62.0452 16.2852 62.3655 16.7617C62.6936 17.2305 62.8577 17.8047 62.8577 18.4844C62.8577 19.6172 62.4045 20.5273 61.4983 21.2148C60.592 21.8945 59.4163 22.2344 57.9709 22.2344C56.9553 22.2344 56.0569 22.0547 55.2756 21.6953C54.4944 21.3359 53.8811 20.8359 53.4358 20.1953C52.9983 19.5469 52.7795 18.8477 52.7795 18.0977H54.9475C54.9866 18.8242 55.2756 19.4023 55.8147 19.832C56.3616 20.2539 57.0803 20.4648 57.9709 20.4648C58.7913 20.4648 59.4475 20.3008 59.9397 19.9727C60.4397 19.6367 60.6897 19.1914 60.6897 18.6367ZM70.0633 6.25V9.32031H72.4305V10.9961H70.0633V18.8594C70.0633 19.3672 70.1687 19.75 70.3797 20.0078C70.5906 20.2578 70.95 20.3828 71.4578 20.3828C71.7078 20.3828 72.0516 20.3359 72.4891 20.2422V22C71.9187 22.1562 71.3641 22.2344 70.825 22.2344C69.8562 22.2344 69.1258 21.9414 68.6336 21.3555C68.1414 20.7695 67.8953 19.9375 67.8953 18.8594V10.9961H65.5867V9.32031H67.8953V6.25H70.0633ZM84.2416 22C84.1166 21.75 84.015 21.3047 83.9369 20.6641C82.9291 21.7109 81.7259 22.2344 80.3275 22.2344C79.0775 22.2344 78.0502 21.8828 77.2455 21.1797C76.4486 20.4688 76.0502 19.5703 76.0502 18.4844C76.0502 17.1641 76.5502 16.1406 77.5502 15.4141C78.558 14.6797 79.972 14.3125 81.7923 14.3125H83.9017V13.3164C83.9017 12.5586 83.6752 11.957 83.222 11.5117C82.7689 11.0586 82.1009 10.832 81.2181 10.832C80.4447 10.832 79.7962 11.0273 79.2728 11.418C78.7494 11.8086 78.4877 12.2812 78.4877 12.8359H76.308C76.308 12.2031 76.5306 11.5938 76.9759 11.0078C77.4291 10.4141 78.0384 9.94531 78.8041 9.60156C79.5775 9.25781 80.4252 9.08594 81.347 9.08594C82.808 9.08594 83.9525 9.45312 84.7806 10.1875C85.6087 10.9141 86.0384 11.918 86.0697 13.1992V19.0352C86.0697 20.1992 86.2181 21.125 86.515 21.8125V22H84.2416ZM80.6439 20.3477C81.3236 20.3477 81.9681 20.1719 82.5775 19.8203C83.1869 19.4688 83.6283 19.0117 83.9017 18.4492V15.8477H82.2025C79.5462 15.8477 78.2181 16.625 78.2181 18.1797C78.2181 18.8594 78.4447 19.3906 78.8978 19.7734C79.3509 20.1562 79.933 20.3477 80.6439 20.3477ZM97.037 11.2656C96.7089 11.2109 96.3534 11.1836 95.9706 11.1836C94.5488 11.1836 93.5839 11.7891 93.0761 13V22H90.9081V9.32031H93.0175L93.0527 10.7852C93.7636 9.65234 94.7714 9.08594 96.0761 9.08594C96.498 9.08594 96.8183 9.14062 97.037 9.25V11.2656ZM104.008 6.25V9.32031H106.375V10.9961H104.008V18.8594C104.008 19.3672 104.114 19.75 104.325 20.0078C104.536 20.2578 104.895 20.3828 105.403 20.3828C105.653 20.3828 105.997 20.3359 106.434 20.2422V22C105.864 22.1562 105.309 22.2344 104.77 22.2344C103.801 22.2344 103.071 21.9414 102.579 21.3555C102.086 20.7695 101.84 19.9375 101.84 18.8594V10.9961H99.5317V9.32031H101.84V6.25H104.008Z" fill="#0A0A0A"/>
<path d="M209.023 94.6367C209.023 94.0508 208.801 93.5977 208.355 93.2773C207.918 92.9492 207.148 92.668 206.047 92.4336C204.953 92.1992 204.082 91.918 203.434 91.5898C202.793 91.2617 202.316 90.8711 202.004 90.418C201.699 89.9648 201.547 89.4258 201.547 88.8008C201.547 87.7617 201.984 86.8828 202.859 86.1641C203.742 85.4453 204.867 85.0859 206.234 85.0859C207.672 85.0859 208.836 85.457 209.727 86.1992C210.625 86.9414 211.074 87.8906 211.074 89.0469H208.895C208.895 88.4531 208.641 87.9414 208.133 87.5117C207.633 87.082 207 86.8672 206.234 86.8672C205.445 86.8672 204.828 87.0391 204.383 87.3828C203.938 87.7266 203.715 88.1758 203.715 88.7305C203.715 89.2539 203.922 89.6484 204.336 89.9141C204.75 90.1797 205.496 90.4336 206.574 90.6758C207.66 90.918 208.539 91.207 209.211 91.543C209.883 91.8789 210.379 92.2852 210.699 92.7617C211.027 93.2305 211.191 93.8047 211.191 94.4844C211.191 95.6172 210.738 96.5273 209.832 97.2148C208.926 97.8945 207.75 98.2344 206.305 98.2344C205.289 98.2344 204.391 98.0547 203.609 97.6953C202.828 97.3359 202.215 96.8359 201.77 96.1953C201.332 95.5469 201.113 94.8477 201.113 94.0977H203.281C203.32 94.8242 203.609 95.4023 204.148 95.832C204.695 96.2539 205.414 96.4648 206.305 96.4648C207.125 96.4648 207.781 96.3008 208.273 95.9727C208.773 95.6367 209.023 95.1914 209.023 94.6367ZM218.397 82.25V85.3203H220.764V86.9961H218.397V94.8594C218.397 95.3672 218.503 95.75 218.713 96.0078C218.924 96.2578 219.284 96.3828 219.792 96.3828C220.042 96.3828 220.385 96.3359 220.823 96.2422V98C220.253 98.1562 219.698 98.2344 219.159 98.2344C218.19 98.2344 217.46 97.9414 216.967 97.3555C216.475 96.7695 216.229 95.9375 216.229 94.8594V86.9961H213.92V85.3203H216.229V82.25H218.397ZM230.876 87.2656C230.548 87.2109 230.193 87.1836 229.81 87.1836C228.388 87.1836 227.423 87.7891 226.915 89V98H224.747V85.3203H226.857L226.892 86.7852C227.603 85.6523 228.61 85.0859 229.915 85.0859C230.337 85.0859 230.657 85.1406 230.876 85.25V87.2656ZM239.347 98.2344C237.629 98.2344 236.23 97.6719 235.152 96.5469C234.074 95.4141 233.535 93.9023 233.535 92.0117V91.6133C233.535 90.3555 233.773 89.2344 234.25 88.25C234.734 87.2578 235.406 86.4844 236.265 85.9297C237.132 85.3672 238.07 85.0859 239.078 85.0859C240.726 85.0859 242.007 85.6289 242.922 86.7148C243.836 87.8008 244.293 89.3555 244.293 91.3789V92.2812H235.703C235.734 93.5312 236.097 94.543 236.793 95.3164C237.496 96.082 238.386 96.4648 239.465 96.4648C240.23 96.4648 240.879 96.3086 241.41 95.9961C241.941 95.6836 242.406 95.2695 242.804 94.7539L244.129 95.7852C243.066 97.418 241.472 98.2344 239.347 98.2344ZM239.078 86.8672C238.203 86.8672 237.468 87.1875 236.875 87.8281C236.281 88.4609 235.914 89.3516 235.773 90.5H242.125V90.3359C242.062 89.2344 241.765 88.3828 241.234 87.7812C240.703 87.1719 239.984 86.8672 239.078 86.8672ZM251.194 82.25V85.3203H253.561V86.9961H251.194V94.8594C251.194 95.3672 251.299 95.75 251.51 96.0078C251.721 96.2578 252.08 96.3828 252.588 96.3828C252.838 96.3828 253.182 96.3359 253.619 96.2422V98C253.049 98.1562 252.494 98.2344 251.955 98.2344C250.987 98.2344 250.256 97.9414 249.764 97.3555C249.272 96.7695 249.026 95.9375 249.026 94.8594V86.9961H246.717V85.3203H249.026V82.25H251.194ZM262.63 96.4648C263.403 96.4648 264.079 96.2305 264.657 95.7617C265.235 95.293 265.555 94.707 265.618 94.0039H267.669C267.63 94.7305 267.38 95.4219 266.919 96.0781C266.458 96.7344 265.841 97.2578 265.067 97.6484C264.302 98.0391 263.489 98.2344 262.63 98.2344C260.903 98.2344 259.528 97.6602 258.505 96.5117C257.489 95.3555 256.981 93.7773 256.981 91.7773V91.4141C256.981 90.1797 257.208 89.082 257.661 88.1211C258.114 87.1602 258.763 86.4141 259.606 85.8828C260.458 85.3516 261.462 85.0859 262.618 85.0859C264.04 85.0859 265.22 85.5117 266.157 86.3633C267.102 87.2148 267.606 88.3203 267.669 89.6797H265.618C265.555 88.8594 265.243 88.1875 264.68 87.6641C264.126 87.1328 263.438 86.8672 262.618 86.8672C261.516 86.8672 260.661 87.2656 260.052 88.0625C259.45 88.8516 259.149 89.9961 259.149 91.4961V91.9062C259.149 93.3672 259.45 94.4922 260.052 95.2812C260.653 96.0703 261.513 96.4648 262.63 96.4648ZM273.714 86.8555C274.675 85.6758 275.925 85.0859 277.464 85.0859C280.144 85.0859 281.495 86.5977 281.519 89.6211V98H279.351V89.6094C279.343 88.6953 279.132 88.0195 278.718 87.582C278.312 87.1445 277.675 86.9258 276.808 86.9258C276.105 86.9258 275.488 87.1133 274.956 87.4883C274.425 87.8633 274.011 88.3555 273.714 88.9648V98H271.546V80H273.714V86.8555Z" fill="#0A0A0A"/>
<path d="M163.727 166.465C164.5 166.465 165.176 166.23 165.754 165.762C166.332 165.293 166.652 164.707 166.715 164.004H168.766C168.727 164.73 168.477 165.422 168.016 166.078C167.555 166.734 166.938 167.258 166.164 167.648C165.398 168.039 164.586 168.234 163.727 168.234C162 168.234 160.625 167.66 159.602 166.512C158.586 165.355 158.078 163.777 158.078 161.777V161.414C158.078 160.18 158.305 159.082 158.758 158.121C159.211 157.16 159.859 156.414 160.703 155.883C161.555 155.352 162.559 155.086 163.715 155.086C165.137 155.086 166.316 155.512 167.254 156.363C168.199 157.215 168.703 158.32 168.766 159.68H166.715C166.652 158.859 166.34 158.188 165.777 157.664C165.223 157.133 164.535 156.867 163.715 156.867C162.613 156.867 161.758 157.266 161.148 158.062C160.547 158.852 160.246 159.996 160.246 161.496V161.906C160.246 163.367 160.547 164.492 161.148 165.281C161.75 166.07 162.609 166.465 163.727 166.465ZM177.905 168.234C176.186 168.234 174.788 167.672 173.71 166.547C172.631 165.414 172.092 163.902 172.092 162.012V161.613C172.092 160.355 172.331 159.234 172.807 158.25C173.292 157.258 173.963 156.484 174.823 155.93C175.69 155.367 176.628 155.086 177.635 155.086C179.284 155.086 180.565 155.629 181.479 156.715C182.393 157.801 182.85 159.355 182.85 161.379V162.281H174.26C174.292 163.531 174.655 164.543 175.35 165.316C176.053 166.082 176.944 166.465 178.022 166.465C178.788 166.465 179.436 166.309 179.967 165.996C180.499 165.684 180.963 165.27 181.362 164.754L182.686 165.785C181.624 167.418 180.03 168.234 177.905 168.234ZM177.635 156.867C176.76 156.867 176.026 157.188 175.432 157.828C174.838 158.461 174.471 159.352 174.331 160.5H180.682V160.336C180.62 159.234 180.323 158.383 179.792 157.781C179.26 157.172 178.542 156.867 177.635 156.867ZM188.86 155.32L188.931 156.914C189.9 155.695 191.165 155.086 192.728 155.086C195.407 155.086 196.759 156.598 196.782 159.621V168H194.614V159.609C194.607 158.695 194.396 158.02 193.982 157.582C193.575 157.145 192.939 156.926 192.071 156.926C191.368 156.926 190.751 157.113 190.22 157.488C189.689 157.863 189.275 158.355 188.978 158.965V168H186.81V155.32H188.86ZM204.433 152.25V155.32H206.8V156.996H204.433V164.859C204.433 165.367 204.539 165.75 204.75 166.008C204.961 166.258 205.32 166.383 205.828 166.383C206.078 166.383 206.422 166.336 206.859 166.242V168C206.289 168.156 205.734 168.234 205.195 168.234C204.226 168.234 203.496 167.941 203.004 167.355C202.511 166.77 202.265 165.938 202.265 164.859V156.996H199.957V155.32H202.265V152.25H204.433ZM216.045 168.234C214.326 168.234 212.928 167.672 211.85 166.547C210.772 165.414 210.233 163.902 210.233 162.012V161.613C210.233 160.355 210.471 159.234 210.948 158.25C211.432 157.258 212.104 156.484 212.963 155.93C213.83 155.367 214.768 155.086 215.776 155.086C217.424 155.086 218.705 155.629 219.619 156.715C220.533 157.801 220.99 159.355 220.99 161.379V162.281H212.401C212.432 163.531 212.795 164.543 213.49 165.316C214.194 166.082 215.084 166.465 216.162 166.465C216.928 166.465 217.576 166.309 218.108 165.996C218.639 165.684 219.104 165.27 219.502 164.754L220.826 165.785C219.764 167.418 218.17 168.234 216.045 168.234ZM215.776 156.867C214.901 156.867 214.166 157.188 213.573 157.828C212.979 158.461 212.612 159.352 212.471 160.5H218.823V160.336C218.76 159.234 218.463 158.383 217.932 157.781C217.401 157.172 216.682 156.867 215.776 156.867ZM231.079 157.266C230.751 157.211 230.395 157.184 230.012 157.184C228.591 157.184 227.626 157.789 227.118 159V168H224.95V155.32H227.059L227.095 156.785C227.805 155.652 228.813 155.086 230.118 155.086C230.54 155.086 230.86 155.141 231.079 155.25V157.266Z" fill="#0A0A0A"/>
<path d="M50.5625 179.84C49.5938 179.684 48.8125 179.605 48.2188 179.605C46.6562 179.605 45.875 180.426 45.875 182.066V183.32H48.582V184.996H45.875V196H43.707V184.996H41.7031V183.32H43.707V181.938C43.7148 180.586 44.0938 179.551 44.8438 178.832C45.5938 178.113 46.6602 177.754 48.043 177.754C48.832 177.754 50.3945 177.992 52.7305 178.469V196H50.5625V179.84ZM62.983 196.234C61.2642 196.234 59.8658 195.672 58.7877 194.547C57.7095 193.414 57.1705 191.902 57.1705 190.012V189.613C57.1705 188.355 57.4088 187.234 57.8853 186.25C58.3697 185.258 59.0416 184.484 59.9009 183.93C60.7681 183.367 61.7056 183.086 62.7134 183.086C64.3619 183.086 65.6431 183.629 66.5572 184.715C67.4713 185.801 67.9283 187.355 67.9283 189.379V190.281H59.3384C59.3697 191.531 59.733 192.543 60.4283 193.316C61.1314 194.082 62.022 194.465 63.1002 194.465C63.8658 194.465 64.5142 194.309 65.0455 193.996C65.5767 193.684 66.0416 193.27 66.44 192.754L67.7642 193.785C66.7017 195.418 65.108 196.234 62.983 196.234ZM62.7134 184.867C61.8384 184.867 61.1041 185.188 60.5103 185.828C59.9166 186.461 59.5494 187.352 59.4088 188.5H65.7603V188.336C65.6978 187.234 65.4009 186.383 64.8697 185.781C64.3384 185.172 63.6197 184.867 62.7134 184.867ZM76.1417 187.949L78.9542 183.32H81.4855L77.337 189.59L81.6144 196H79.1066L76.1769 191.254L73.2472 196H70.7277L75.005 189.59L70.8566 183.32H73.3644L76.1417 187.949ZM89.7458 189.637H84.027V187.867H89.7458V189.637ZM98.5686 196.234C96.8498 196.234 95.4514 195.672 94.3733 194.547C93.2952 193.414 92.7561 191.902 92.7561 190.012V189.613C92.7561 188.355 92.9944 187.234 93.4709 186.25C93.9553 185.258 94.6272 184.484 95.4866 183.93C96.3538 183.367 97.2913 183.086 98.2991 183.086C99.9475 183.086 101.229 183.629 102.143 184.715C103.057 185.801 103.514 187.355 103.514 189.379V190.281H94.9241C94.9553 191.531 95.3186 192.543 96.0139 193.316C96.717 194.082 97.6077 194.465 98.6858 194.465C99.4514 194.465 100.1 194.309 100.631 193.996C101.162 193.684 101.627 193.27 102.026 192.754L103.35 193.785C102.287 195.418 100.694 196.234 98.5686 196.234ZM98.2991 184.867C97.4241 184.867 96.6897 185.188 96.0959 185.828C95.5022 186.461 95.135 187.352 94.9944 188.5H101.346V188.336C101.283 187.234 100.987 186.383 100.455 185.781C99.9241 185.172 99.2053 184.867 98.2991 184.867ZM109.524 183.32L109.595 184.914C110.563 183.695 111.829 183.086 113.391 183.086C116.071 183.086 117.423 184.598 117.446 187.621V196H115.278V187.609C115.27 186.695 115.059 186.02 114.645 185.582C114.239 185.145 113.602 184.926 112.735 184.926C112.032 184.926 111.415 185.113 110.884 185.488C110.352 185.863 109.938 186.355 109.641 186.965V196H107.473V183.32H109.524ZM121.628 189.555C121.628 187.609 122.089 186.047 123.011 184.867C123.933 183.68 125.14 183.086 126.632 183.086C128.117 183.086 129.292 183.594 130.16 184.609V178H132.327V196H130.335L130.23 194.641C129.363 195.703 128.156 196.234 126.609 196.234C125.14 196.234 123.941 195.633 123.011 194.43C122.089 193.227 121.628 191.656 121.628 189.719V189.555ZM123.796 189.801C123.796 191.238 124.093 192.363 124.687 193.176C125.281 193.988 126.101 194.395 127.148 194.395C128.523 194.395 129.527 193.777 130.16 192.543V186.719C129.511 185.523 128.515 184.926 127.171 184.926C126.109 184.926 125.281 185.336 124.687 186.156C124.093 186.977 123.796 188.191 123.796 189.801Z" fill="#0A0A0A"/>
<rect y="55" width="175" height="75" fill="#EAE8E8"/>
<rect x="8" y="63" width="16" height="16" fill="#946772"/>
<rect x="45" y="92" width="16" height="31" fill="#946772"/>
<rect x="144" y="64" width="16" height="60" fill="#946772"/>
<rect x="83" y="84" width="42" height="16" fill="#946772"/>
<line x1="15.5" y1="55" x2="15.5" y2="24" stroke="black"/>
<line x1="52.5" y1="166" x2="52.5" y2="135" stroke="black"/>
<line x1="148.566" y1="166.248" x2="124.566" y2="124.248" stroke="black"/>
<line x1="195" y1="94.5" x2="170" y2="94.5" stroke="black"/>
</svg>
