<svg width="175" height="75" viewBox="0 0 175 75" fill="none" xmlns="http://www.w3.org/2000/svg">
<rect width="175" height="75" fill="#EAE8E8"/>
<rect x="18" y="15" width="16" height="16" fill="#946772"/>
<rect x="137" y="15" width="16" height="16" fill="#946772"/>
<rect x="46" y="6" width="16" height="31" fill="#946772"/>
<rect x="74" y="15" width="42" height="16" fill="#946772"/>
<path d="M86.4985 24H85.6855V17.25H86.4985V24ZM88.1284 21.5786C88.1284 21.1128 88.2192 20.6938 88.4008 20.3218C88.5854 19.9497 88.8403 19.6626 89.1655 19.4604C89.4936 19.2583 89.8671 19.1572 90.2861 19.1572C90.9336 19.1572 91.4565 19.3813 91.8549 19.8296C92.2563 20.2778 92.457 20.874 92.457 21.6182V21.6753C92.457 22.1382 92.3676 22.5542 92.1889 22.9233C92.0131 23.2896 91.7597 23.5752 91.4287 23.7803C91.1005 23.9854 90.7226 24.0879 90.2949 24.0879C89.6504 24.0879 89.1274 23.8638 88.726 23.4155C88.3276 22.9673 88.1284 22.374 88.1284 21.6357V21.5786ZM88.9458 21.6753C88.9458 22.2026 89.0673 22.626 89.3105 22.9453C89.5566 23.2646 89.8847 23.4243 90.2949 23.4243C90.708 23.4243 91.0361 23.2632 91.2793 22.9409C91.5224 22.6157 91.644 22.1616 91.644 21.5786C91.644 21.0571 91.5195 20.6353 91.2705 20.313C91.0244 19.9878 90.6962 19.8252 90.2861 19.8252C89.8847 19.8252 89.561 19.9849 89.3149 20.3042C89.0688 20.6235 88.9458 21.0806 88.9458 21.6753ZM96.3149 19.9746C96.1918 19.9541 96.0585 19.9438 95.915 19.9438C95.3818 19.9438 95.0199 20.1709 94.8295 20.625V24H94.0165V19.2451H94.8075L94.8207 19.7944C95.0873 19.3696 95.4653 19.1572 95.9545 19.1572C96.1127 19.1572 96.2328 19.1777 96.3149 19.2188V19.9746ZM99.4916 24.0879C98.8471 24.0879 98.3226 23.877 97.9183 23.4551C97.514 23.0303 97.3119 22.4634 97.3119 21.7544V21.605C97.3119 21.1333 97.4012 20.7129 97.58 20.3438C97.7616 19.9717 98.0136 19.6816 98.3358 19.4736C98.661 19.2627 99.0126 19.1572 99.3905 19.1572C100.009 19.1572 100.489 19.3608 100.832 19.7681C101.175 20.1753 101.346 20.7583 101.346 21.5171V21.8555H98.1249C98.1366 22.3242 98.2728 22.7036 98.5336 22.9937C98.7972 23.2808 99.1312 23.4243 99.5355 23.4243C99.8226 23.4243 100.066 23.3657 100.265 23.2485C100.464 23.1313 100.639 22.9761 100.788 22.7827L101.285 23.1694C100.886 23.7817 100.288 24.0879 99.4916 24.0879ZM99.3905 19.8252C99.0624 19.8252 98.787 19.9453 98.5643 20.1855C98.3417 20.4229 98.204 20.7568 98.1512 21.1875H100.533V21.126C100.51 20.7129 100.398 20.3936 100.199 20.168C99.9999 19.9395 99.7304 19.8252 99.3905 19.8252ZM103.596 19.2451L103.618 19.7725C103.966 19.3623 104.436 19.1572 105.028 19.1572C105.693 19.1572 106.146 19.4121 106.386 19.9219C106.544 19.6934 106.749 19.5088 107.001 19.3682C107.256 19.2275 107.556 19.1572 107.902 19.1572C108.945 19.1572 109.475 19.7095 109.493 20.814V24H108.68V20.8623C108.68 20.5225 108.602 20.269 108.447 20.1021C108.292 19.9321 108.031 19.8472 107.665 19.8472C107.363 19.8472 107.113 19.938 106.913 20.1196C106.714 20.2983 106.598 20.54 106.566 20.8447V24H105.749V20.8843C105.749 20.1929 105.41 19.8472 104.734 19.8472C104.201 19.8472 103.836 20.0742 103.639 20.5283V24H102.827V19.2451H103.596Z" fill="white"/>
<path d="M47.7183 18.0938V19.2451H48.606V19.8735H47.7183V22.8223C47.7183 23.0127 47.7578 23.1562 47.8369 23.2529C47.916 23.3467 48.0508 23.3936 48.2412 23.3936C48.335 23.3936 48.4639 23.376 48.6279 23.3408V24C48.4141 24.0586 48.2061 24.0879 48.0039 24.0879C47.6406 24.0879 47.3667 23.978 47.1821 23.7583C46.9976 23.5386 46.9053 23.2266 46.9053 22.8223V19.8735H46.0396V19.2451H46.9053V18.0938H47.7183ZM52.0727 24.0879C51.4282 24.0879 50.9038 23.877 50.4995 23.4551C50.0952 23.0303 49.893 22.4634 49.893 21.7544V21.605C49.893 21.1333 49.9824 20.7129 50.1611 20.3438C50.3427 19.9717 50.5947 19.6816 50.917 19.4736C51.2421 19.2627 51.5937 19.1572 51.9716 19.1572C52.5898 19.1572 53.0703 19.3608 53.413 19.7681C53.7558 20.1753 53.9272 20.7583 53.9272 21.5171V21.8555H50.706C50.7177 22.3242 50.854 22.7036 51.1147 22.9937C51.3784 23.2808 51.7124 23.4243 52.1167 23.4243C52.4038 23.4243 52.6469 23.3657 52.8462 23.2485C53.0454 23.1313 53.2197 22.9761 53.3691 22.7827L53.8657 23.1694C53.4672 23.7817 52.8696 24.0879 52.0727 24.0879ZM51.9716 19.8252C51.6435 19.8252 51.3681 19.9453 51.1455 20.1855C50.9228 20.4229 50.7851 20.7568 50.7324 21.1875H53.1142V21.126C53.0908 20.7129 52.9795 20.3936 52.7802 20.168C52.581 19.9395 52.3115 19.8252 51.9716 19.8252ZM57.0072 20.981L58.0619 19.2451H59.0112L57.4555 21.5962L59.0595 24H58.1191L57.0204 22.2202L55.9218 24H54.977L56.581 21.5962L55.0253 19.2451H55.9657L57.0072 20.981ZM61.5199 18.0938V19.2451H62.4076V19.8735H61.5199V22.8223C61.5199 23.0127 61.5595 23.1562 61.6386 23.2529C61.7177 23.3467 61.8524 23.3936 62.0429 23.3936C62.1366 23.3936 62.2655 23.376 62.4296 23.3408V24C62.2157 24.0586 62.0077 24.0879 61.8055 24.0879C61.4423 24.0879 61.1683 23.978 60.9838 23.7583C60.7992 23.5386 60.7069 23.2266 60.7069 22.8223V19.8735H59.8412V19.2451H60.7069V18.0938H61.5199Z" fill="white"/>
<path d="M18.7183 18.0938V19.2451H19.606V19.8735H18.7183V22.8223C18.7183 23.0127 18.7578 23.1562 18.8369 23.2529C18.916 23.3467 19.0508 23.3936 19.2412 23.3936C19.335 23.3936 19.4639 23.376 19.6279 23.3408V24C19.4141 24.0586 19.2061 24.0879 19.0039 24.0879C18.6406 24.0879 18.3667 23.978 18.1821 23.7583C17.9976 23.5386 17.9053 23.2266 17.9053 22.8223V19.8735H17.0396V19.2451H17.9053V18.0938H18.7183ZM23.0727 24.0879C22.4282 24.0879 21.9038 23.877 21.4995 23.4551C21.0952 23.0303 20.893 22.4634 20.893 21.7544V21.605C20.893 21.1333 20.9824 20.7129 21.1611 20.3438C21.3427 19.9717 21.5947 19.6816 21.917 19.4736C22.2421 19.2627 22.5937 19.1572 22.9716 19.1572C23.5898 19.1572 24.0703 19.3608 24.413 19.7681C24.7558 20.1753 24.9272 20.7583 24.9272 21.5171V21.8555H21.706C21.7177 22.3242 21.854 22.7036 22.1147 22.9937C22.3784 23.2808 22.7124 23.4243 23.1167 23.4243C23.4038 23.4243 23.6469 23.3657 23.8462 23.2485C24.0454 23.1313 24.2197 22.9761 24.3691 22.7827L24.8657 23.1694C24.4672 23.7817 23.8696 24.0879 23.0727 24.0879ZM22.9716 19.8252C22.6435 19.8252 22.3681 19.9453 22.1455 20.1855C21.9228 20.4229 21.7851 20.7568 21.7324 21.1875H24.1142V21.126C24.0908 20.7129 23.9795 20.3936 23.7802 20.168C23.581 19.9395 23.3115 19.8252 22.9716 19.8252ZM28.0072 20.981L29.0619 19.2451H30.0112L28.4555 21.5962L30.0595 24H29.1191L28.0204 22.2202L26.9218 24H25.977L27.581 21.5962L26.0253 19.2451H26.9657L28.0072 20.981ZM32.5199 18.0938V19.2451H33.4076V19.8735H32.5199V22.8223C32.5199 23.0127 32.5595 23.1562 32.6386 23.2529C32.7177 23.3467 32.8524 23.3936 33.0429 23.3936C33.1366 23.3936 33.2655 23.376 33.4296 23.3408V24C33.2157 24.0586 33.0077 24.0879 32.8055 24.0879C32.4423 24.0879 32.1683 23.978 31.9838 23.7583C31.7992 23.5386 31.7069 23.2266 31.7069 22.8223V19.8735H30.8412V19.2451H31.7069V18.0938H32.5199Z" fill="white"/>
<path d="M137.718 17.0938V18.2451H138.606V18.8735H137.718V21.8223C137.718 22.0127 137.758 22.1562 137.837 22.2529C137.916 22.3467 138.051 22.3936 138.241 22.3936C138.335 22.3936 138.464 22.376 138.628 22.3408V23C138.414 23.0586 138.206 23.0879 138.004 23.0879C137.641 23.0879 137.367 22.978 137.182 22.7583C136.998 22.5386 136.905 22.2266 136.905 21.8223V18.8735H136.04V18.2451H136.905V17.0938H137.718ZM142.073 23.0879C141.428 23.0879 140.904 22.877 140.499 22.4551C140.095 22.0303 139.893 21.4634 139.893 20.7544V20.605C139.893 20.1333 139.982 19.7129 140.161 19.3438C140.343 18.9717 140.595 18.6816 140.917 18.4736C141.242 18.2627 141.594 18.1572 141.972 18.1572C142.59 18.1572 143.07 18.3608 143.413 18.7681C143.756 19.1753 143.927 19.7583 143.927 20.5171V20.8555H140.706C140.718 21.3242 140.854 21.7036 141.115 21.9937C141.378 22.2808 141.712 22.4243 142.117 22.4243C142.404 22.4243 142.647 22.3657 142.846 22.2485C143.045 22.1313 143.22 21.9761 143.369 21.7827L143.866 22.1694C143.467 22.7817 142.87 23.0879 142.073 23.0879ZM141.972 18.8252C141.644 18.8252 141.368 18.9453 141.145 19.1855C140.923 19.4229 140.785 19.7568 140.732 20.1875H143.114V20.126C143.091 19.7129 142.979 19.3936 142.78 19.168C142.581 18.9395 142.311 18.8252 141.972 18.8252ZM147.007 19.981L148.062 18.2451H149.011L147.455 20.5962L149.059 23H148.119L147.02 21.2202L145.922 23H144.977L146.581 20.5962L145.025 18.2451H145.966L147.007 19.981ZM151.52 17.0938V18.2451H152.408V18.8735H151.52V21.8223C151.52 22.0127 151.559 22.1562 151.639 22.2529C151.718 22.3467 151.852 22.3936 152.043 22.3936C152.137 22.3936 152.266 22.376 152.43 22.3408V23C152.216 23.0586 152.008 23.0879 151.806 23.0879C151.442 23.0879 151.168 22.978 150.984 22.7583C150.799 22.5386 150.707 22.2266 150.707 21.8223V18.8735H149.841V18.2451H150.707V17.0938H151.52Z" fill="white"/>
<line x1="13.9964" y1="24.5" x2="152.996" y2="23.5" stroke="#050503"/>
</svg>
