<svg width="708" height="434" viewBox="0 0 708 434" fill="none" xmlns="http://www.w3.org/2000/svg">
<rect width="678" height="426" fill="#F2F2F3"/>
<rect x="24" y="36" width="627" height="62" fill="#946772"/>
<rect x="24" y="341" width="627" height="63" fill="#946772"/>
<rect x="24" y="120" width="205" height="186" fill="#946772"/>
<path d="M87.3906 180.465H80.2305V188H77.9805V170.938H88.5508V172.789H80.2305V178.625H87.3906V180.465ZM94.7017 188H92.5338V170H94.7017V188ZM104.884 188.234C103.165 188.234 101.767 187.672 100.689 186.547C99.6105 185.414 99.0714 183.902 99.0714 182.012V181.613C99.0714 180.355 99.3097 179.234 99.7863 178.25C100.271 177.258 100.943 176.484 101.802 175.93C102.669 175.367 103.607 175.086 104.614 175.086C106.263 175.086 107.544 175.629 108.458 176.715C109.372 177.801 109.829 179.355 109.829 181.379V182.281H101.239C101.271 183.531 101.634 184.543 102.329 185.316C103.032 186.082 103.923 186.465 105.001 186.465C105.767 186.465 106.415 186.309 106.946 185.996C107.478 185.684 107.943 185.27 108.341 184.754L109.665 185.785C108.603 187.418 107.009 188.234 104.884 188.234ZM104.614 176.867C103.739 176.867 103.005 177.188 102.411 177.828C101.818 178.461 101.45 179.352 101.31 180.5H107.661V180.336C107.599 179.234 107.302 178.383 106.771 177.781C106.239 177.172 105.521 176.867 104.614 176.867ZM118.043 179.949L120.855 175.32H123.386L119.238 181.59L123.515 188H121.007L118.078 183.254L115.148 188H112.629L116.906 181.59L112.757 175.32H115.265L118.043 179.949ZM129.49 188H127.323V175.32H129.49V188ZM127.147 171.957C127.147 171.605 127.252 171.309 127.463 171.066C127.682 170.824 128.002 170.703 128.424 170.703C128.846 170.703 129.166 170.824 129.385 171.066C129.604 171.309 129.713 171.605 129.713 171.957C129.713 172.309 129.604 172.602 129.385 172.836C129.166 173.07 128.846 173.188 128.424 173.188C128.002 173.188 127.682 173.07 127.463 172.836C127.252 172.602 127.147 172.309 127.147 171.957ZM145.145 181.801C145.145 183.738 144.7 185.297 143.809 186.477C142.919 187.648 141.723 188.234 140.223 188.234C138.622 188.234 137.384 187.668 136.509 186.535L136.403 188H134.411V170H136.579V176.715C137.454 175.629 138.661 175.086 140.2 175.086C141.739 175.086 142.946 175.668 143.821 176.832C144.704 177.996 145.145 179.59 145.145 181.613V181.801ZM142.977 181.555C142.977 180.078 142.692 178.938 142.122 178.133C141.552 177.328 140.731 176.926 139.661 176.926C138.231 176.926 137.204 177.59 136.579 178.918V184.402C137.243 185.73 138.278 186.395 139.684 186.395C140.723 186.395 141.532 185.992 142.11 185.188C142.688 184.383 142.977 183.172 142.977 181.555ZM151.683 188H149.515V170H151.683V188ZM161.865 188.234C160.146 188.234 158.748 187.672 157.67 186.547C156.592 185.414 156.053 183.902 156.053 182.012V181.613C156.053 180.355 156.291 179.234 156.768 178.25C157.252 177.258 157.924 176.484 158.783 175.93C159.65 175.367 160.588 175.086 161.596 175.086C163.244 175.086 164.525 175.629 165.439 176.715C166.353 177.801 166.81 179.355 166.81 181.379V182.281H158.221C158.252 183.531 158.615 184.543 159.31 185.316C160.014 186.082 160.904 186.465 161.982 186.465C162.748 186.465 163.396 186.309 163.928 185.996C164.459 185.684 164.924 185.27 165.322 184.754L166.646 185.785C165.584 187.418 163.99 188.234 161.865 188.234ZM161.596 176.867C160.721 176.867 159.986 177.188 159.393 177.828C158.799 178.461 158.432 179.352 158.291 180.5H164.643V180.336C164.58 179.234 164.283 178.383 163.752 177.781C163.221 177.172 162.502 176.867 161.596 176.867ZM77.9805 216V198.938H83.5586C85.4102 198.938 86.8008 199.32 87.7305 200.086C88.668 200.852 89.1367 201.984 89.1367 203.484C89.1367 204.281 88.9102 204.988 88.457 205.605C88.0039 206.215 87.3867 206.688 86.6055 207.023C87.5273 207.281 88.2539 207.773 88.7852 208.5C89.3242 209.219 89.5938 210.078 89.5938 211.078C89.5938 212.609 89.0977 213.812 88.1055 214.688C87.1133 215.562 85.7109 216 83.8984 216H77.9805ZM80.2305 208.02V214.16H83.9453C84.9922 214.16 85.8164 213.891 86.418 213.352C87.0273 212.805 87.332 212.055 87.332 211.102C87.332 209.047 86.2148 208.02 83.9805 208.02H80.2305ZM80.2305 206.215H83.6289C84.6133 206.215 85.3984 205.969 85.9844 205.477C86.5781 204.984 86.875 204.316 86.875 203.473C86.875 202.535 86.6016 201.855 86.0547 201.434C85.5078 201.004 84.6758 200.789 83.5586 200.789H80.2305V206.215ZM93.4595 209.543C93.4595 208.301 93.7017 207.184 94.1861 206.191C94.6783 205.199 95.358 204.434 96.2252 203.895C97.1002 203.355 98.0963 203.086 99.2134 203.086C100.94 203.086 102.335 203.684 103.397 204.879C104.467 206.074 105.003 207.664 105.003 209.648V209.801C105.003 211.035 104.764 212.145 104.288 213.129C103.819 214.105 103.143 214.867 102.26 215.414C101.385 215.961 100.378 216.234 99.2369 216.234C97.5181 216.234 96.1236 215.637 95.0533 214.441C93.9908 213.246 93.4595 211.664 93.4595 209.695V209.543ZM95.6392 209.801C95.6392 211.207 95.9634 212.336 96.6119 213.188C97.2681 214.039 98.1431 214.465 99.2369 214.465C100.338 214.465 101.213 214.035 101.862 213.176C102.51 212.309 102.835 211.098 102.835 209.543C102.835 208.152 102.503 207.027 101.838 206.168C101.182 205.301 100.307 204.867 99.2134 204.867C98.1431 204.867 97.2798 205.293 96.6236 206.145C95.9673 206.996 95.6392 208.215 95.6392 209.801ZM113.157 207.949L115.97 203.32H118.501L114.353 209.59L118.63 216H116.122L113.193 211.254L110.263 216H107.743L112.021 209.59L107.872 203.32H110.38L113.157 207.949ZM80.8867 226.938L86.4648 240.859L92.043 226.938H94.9609V244H92.7109V237.355L92.9219 230.184L87.3203 244H85.5977L80.0078 230.219L80.2305 237.355V244H77.9805V226.938H80.8867ZM99.4595 237.543C99.4595 236.301 99.7017 235.184 100.186 234.191C100.678 233.199 101.358 232.434 102.225 231.895C103.1 231.355 104.096 231.086 105.213 231.086C106.94 231.086 108.335 231.684 109.397 232.879C110.467 234.074 111.003 235.664 111.003 237.648V237.801C111.003 239.035 110.764 240.145 110.288 241.129C109.819 242.105 109.143 242.867 108.26 243.414C107.385 243.961 106.378 244.234 105.237 244.234C103.518 244.234 102.124 243.637 101.053 242.441C99.9908 241.246 99.4595 239.664 99.4595 237.695V237.543ZM101.639 237.801C101.639 239.207 101.963 240.336 102.612 241.188C103.268 242.039 104.143 242.465 105.237 242.465C106.338 242.465 107.213 242.035 107.862 241.176C108.51 240.309 108.835 239.098 108.835 237.543C108.835 236.152 108.503 235.027 107.838 234.168C107.182 233.301 106.307 232.867 105.213 232.867C104.143 232.867 103.28 233.293 102.624 234.145C101.967 234.996 101.639 236.215 101.639 237.801ZM114.634 237.555C114.634 235.609 115.095 234.047 116.017 232.867C116.939 231.68 118.146 231.086 119.638 231.086C121.122 231.086 122.298 231.594 123.165 232.609V226H125.333V244H123.341L123.235 242.641C122.368 243.703 121.161 244.234 119.614 244.234C118.146 244.234 116.946 243.633 116.017 242.43C115.095 241.227 114.634 239.656 114.634 237.719V237.555ZM116.802 237.801C116.802 239.238 117.099 240.363 117.693 241.176C118.286 241.988 119.107 242.395 120.153 242.395C121.528 242.395 122.532 241.777 123.165 240.543V234.719C122.517 233.523 121.521 232.926 120.177 232.926C119.114 232.926 118.286 233.336 117.693 234.156C117.099 234.977 116.802 236.191 116.802 237.801ZM137.976 242.746C137.132 243.738 135.894 244.234 134.261 244.234C132.91 244.234 131.879 243.844 131.168 243.062C130.465 242.273 130.109 241.109 130.101 239.57V231.32H132.269V239.512C132.269 241.434 133.05 242.395 134.613 242.395C136.269 242.395 137.371 241.777 137.918 240.543V231.32H140.086V244H138.023L137.976 242.746ZM147.186 244H145.018V226H147.186V244ZM157.368 244.234C155.649 244.234 154.251 243.672 153.173 242.547C152.095 241.414 151.555 239.902 151.555 238.012V237.613C151.555 236.355 151.794 235.234 152.27 234.25C152.755 233.258 153.427 232.484 154.286 231.93C155.153 231.367 156.091 231.086 157.098 231.086C158.747 231.086 160.028 231.629 160.942 232.715C161.856 233.801 162.313 235.355 162.313 237.379V238.281H153.723C153.755 239.531 154.118 240.543 154.813 241.316C155.516 242.082 156.407 242.465 157.485 242.465C158.251 242.465 158.899 242.309 159.43 241.996C159.962 241.684 160.427 241.27 160.825 240.754L162.149 241.785C161.087 243.418 159.493 244.234 157.368 244.234ZM157.098 232.867C156.223 232.867 155.489 233.188 154.895 233.828C154.302 234.461 153.934 235.352 153.794 236.5H160.145V236.336C160.083 235.234 159.786 234.383 159.255 233.781C158.723 233.172 158.005 232.867 157.098 232.867Z" fill="white"/>
<path d="M205.531 375.586C205.32 377.391 204.652 378.785 203.527 379.77C202.41 380.746 200.922 381.234 199.062 381.234C197.047 381.234 195.43 380.512 194.211 379.066C193 377.621 192.395 375.688 192.395 373.266V371.625C192.395 370.039 192.676 368.645 193.238 367.441C193.809 366.238 194.613 365.316 195.652 364.676C196.691 364.027 197.895 363.703 199.262 363.703C201.074 363.703 202.527 364.211 203.621 365.227C204.715 366.234 205.352 367.633 205.531 369.422H203.27C203.074 368.062 202.648 367.078 201.992 366.469C201.344 365.859 200.434 365.555 199.262 365.555C197.824 365.555 196.695 366.086 195.875 367.148C195.062 368.211 194.656 369.723 194.656 371.684V373.336C194.656 375.188 195.043 376.66 195.816 377.754C196.59 378.848 197.672 379.395 199.062 379.395C200.312 379.395 201.27 379.113 201.934 378.551C202.605 377.98 203.051 376.992 203.27 375.586H205.531ZM209.139 374.543C209.139 373.301 209.381 372.184 209.866 371.191C210.358 370.199 211.038 369.434 211.905 368.895C212.78 368.355 213.776 368.086 214.893 368.086C216.62 368.086 218.014 368.684 219.077 369.879C220.147 371.074 220.682 372.664 220.682 374.648V374.801C220.682 376.035 220.444 377.145 219.967 378.129C219.499 379.105 218.823 379.867 217.94 380.414C217.065 380.961 216.057 381.234 214.917 381.234C213.198 381.234 211.803 380.637 210.733 379.441C209.67 378.246 209.139 376.664 209.139 374.695V374.543ZM211.319 374.801C211.319 376.207 211.643 377.336 212.292 378.188C212.948 379.039 213.823 379.465 214.917 379.465C216.018 379.465 216.893 379.035 217.542 378.176C218.19 377.309 218.514 376.098 218.514 374.543C218.514 373.152 218.182 372.027 217.518 371.168C216.862 370.301 215.987 369.867 214.893 369.867C213.823 369.867 212.96 370.293 212.303 371.145C211.647 371.996 211.319 373.215 211.319 374.801ZM226.892 368.32L226.962 369.914C227.931 368.695 229.196 368.086 230.759 368.086C233.439 368.086 234.79 369.598 234.814 372.621V381H232.646V372.609C232.638 371.695 232.427 371.02 232.013 370.582C231.607 370.145 230.97 369.926 230.103 369.926C229.4 369.926 228.782 370.113 228.251 370.488C227.72 370.863 227.306 371.355 227.009 371.965V381H224.841V368.32H226.892ZM242.465 365.25V368.32H244.832V369.996H242.465V377.859C242.465 378.367 242.57 378.75 242.781 379.008C242.992 379.258 243.351 379.383 243.859 379.383C244.109 379.383 244.453 379.336 244.89 379.242V381C244.32 381.156 243.765 381.234 243.226 381.234C242.257 381.234 241.527 380.941 241.035 380.355C240.543 379.77 240.297 378.938 240.297 377.859V369.996H237.988V368.32H240.297V365.25H242.465ZM254.076 381.234C252.358 381.234 250.959 380.672 249.881 379.547C248.803 378.414 248.264 376.902 248.264 375.012V374.613C248.264 373.355 248.502 372.234 248.979 371.25C249.463 370.258 250.135 369.484 250.994 368.93C251.862 368.367 252.799 368.086 253.807 368.086C255.455 368.086 256.737 368.629 257.651 369.715C258.565 370.801 259.022 372.355 259.022 374.379V375.281H250.432C250.463 376.531 250.826 377.543 251.522 378.316C252.225 379.082 253.115 379.465 254.194 379.465C254.959 379.465 255.608 379.309 256.139 378.996C256.67 378.684 257.135 378.27 257.533 377.754L258.858 378.785C257.795 380.418 256.201 381.234 254.076 381.234ZM253.807 369.867C252.932 369.867 252.198 370.188 251.604 370.828C251.01 371.461 250.643 372.352 250.502 373.5H256.854V373.336C256.791 372.234 256.494 371.383 255.963 370.781C255.432 370.172 254.713 369.867 253.807 369.867ZM265.032 368.32L265.102 369.914C266.071 368.695 267.337 368.086 268.899 368.086C271.579 368.086 272.93 369.598 272.954 372.621V381H270.786V372.609C270.778 371.695 270.567 371.02 270.153 370.582C269.747 370.145 269.11 369.926 268.243 369.926C267.54 369.926 266.923 370.113 266.391 370.488C265.86 370.863 265.446 371.355 265.149 371.965V381H262.981V368.32H265.032ZM280.605 365.25V368.32H282.972V369.996H280.605V377.859C280.605 378.367 280.71 378.75 280.921 379.008C281.132 379.258 281.492 379.383 281.999 379.383C282.249 379.383 282.593 379.336 283.031 379.242V381C282.46 381.156 281.906 381.234 281.367 381.234C280.398 381.234 279.667 380.941 279.175 380.355C278.683 379.77 278.437 378.938 278.437 377.859V369.996H276.128V368.32H278.437V365.25H280.605ZM304.098 373.465H296.938V381H294.688V363.938H305.258V365.789H296.938V371.625H304.098V373.465ZM311.409 381H309.241V368.32H311.409V381ZM309.065 364.957C309.065 364.605 309.171 364.309 309.382 364.066C309.601 363.824 309.921 363.703 310.343 363.703C310.765 363.703 311.085 363.824 311.304 364.066C311.522 364.309 311.632 364.605 311.632 364.957C311.632 365.309 311.522 365.602 311.304 365.836C311.085 366.07 310.765 366.188 310.343 366.188C309.921 366.188 309.601 366.07 309.382 365.836C309.171 365.602 309.065 365.309 309.065 364.957ZM322.459 370.266C322.13 370.211 321.775 370.184 321.392 370.184C319.97 370.184 319.005 370.789 318.498 372V381H316.33V368.32H318.439L318.474 369.785C319.185 368.652 320.193 368.086 321.498 368.086C321.92 368.086 322.24 368.141 322.459 368.25V370.266ZM333.285 377.637C333.285 377.051 333.063 376.598 332.617 376.277C332.18 375.949 331.41 375.668 330.309 375.434C329.215 375.199 328.344 374.918 327.695 374.59C327.055 374.262 326.578 373.871 326.266 373.418C325.961 372.965 325.809 372.426 325.809 371.801C325.809 370.762 326.246 369.883 327.121 369.164C328.004 368.445 329.129 368.086 330.496 368.086C331.934 368.086 333.098 368.457 333.988 369.199C334.887 369.941 335.336 370.891 335.336 372.047H333.156C333.156 371.453 332.902 370.941 332.395 370.512C331.895 370.082 331.262 369.867 330.496 369.867C329.707 369.867 329.09 370.039 328.645 370.383C328.199 370.727 327.977 371.176 327.977 371.73C327.977 372.254 328.184 372.648 328.598 372.914C329.012 373.18 329.758 373.434 330.836 373.676C331.922 373.918 332.801 374.207 333.473 374.543C334.145 374.879 334.641 375.285 334.961 375.762C335.289 376.23 335.453 376.805 335.453 377.484C335.453 378.617 335 379.527 334.094 380.215C333.188 380.895 332.012 381.234 330.567 381.234C329.551 381.234 328.652 381.055 327.871 380.695C327.09 380.336 326.477 379.836 326.031 379.195C325.594 378.547 325.375 377.848 325.375 377.098H327.543C327.582 377.824 327.871 378.402 328.41 378.832C328.957 379.254 329.676 379.465 330.567 379.465C331.387 379.465 332.043 379.301 332.535 378.973C333.035 378.637 333.285 378.191 333.285 377.637ZM342.659 365.25V368.32H345.026V369.996H342.659V377.859C342.659 378.367 342.764 378.75 342.975 379.008C343.186 379.258 343.546 379.383 344.053 379.383C344.303 379.383 344.647 379.336 345.085 379.242V381C344.514 381.156 343.96 381.234 343.421 381.234C342.452 381.234 341.721 380.941 341.229 380.355C340.737 379.77 340.491 378.938 340.491 377.859V369.996H338.182V368.32H340.491V365.25H342.659ZM366.164 376.547H359.015L357.41 381H355.09L361.605 363.938H363.574L370.101 381H367.793L366.164 376.547ZM359.695 374.695H365.496L362.59 366.715L359.695 374.695ZM384.209 374.801C384.209 376.73 383.768 378.285 382.885 379.465C382.002 380.645 380.807 381.234 379.299 381.234C377.76 381.234 376.549 380.746 375.666 379.77V385.875H373.498V368.32H375.479L375.584 369.727C376.467 368.633 377.694 368.086 379.264 368.086C380.788 368.086 381.991 368.66 382.873 369.809C383.764 370.957 384.209 372.555 384.209 374.602V374.801ZM382.041 374.555C382.041 373.125 381.737 371.996 381.127 371.168C380.518 370.34 379.682 369.926 378.62 369.926C377.307 369.926 376.323 370.508 375.666 371.672V377.73C376.315 378.887 377.307 379.465 378.643 379.465C379.682 379.465 380.506 379.055 381.116 378.234C381.733 377.406 382.041 376.18 382.041 374.555ZM399.126 374.801C399.126 376.73 398.685 378.285 397.802 379.465C396.919 380.645 395.724 381.234 394.216 381.234C392.677 381.234 391.466 380.746 390.583 379.77V385.875H388.415V368.32H390.395L390.501 369.727C391.384 368.633 392.61 368.086 394.181 368.086C395.704 368.086 396.907 368.66 397.79 369.809C398.681 370.957 399.126 372.555 399.126 374.602V374.801ZM396.958 374.555C396.958 373.125 396.653 371.996 396.044 371.168C395.435 370.34 394.599 369.926 393.536 369.926C392.224 369.926 391.239 370.508 390.583 371.672V377.73C391.231 378.887 392.224 379.465 393.56 379.465C394.599 379.465 395.423 379.055 396.032 378.234C396.649 377.406 396.958 376.18 396.958 374.555ZM409.46 370.266C409.132 370.211 408.777 370.184 408.394 370.184C406.972 370.184 406.007 370.789 405.5 372V381H403.332V368.32H405.441L405.476 369.785C406.187 368.652 407.195 368.086 408.5 368.086C408.921 368.086 409.242 368.141 409.46 368.25V370.266ZM412.096 374.543C412.096 373.301 412.338 372.184 412.822 371.191C413.315 370.199 413.994 369.434 414.861 368.895C415.736 368.355 416.732 368.086 417.85 368.086C419.576 368.086 420.971 368.684 422.033 369.879C423.104 371.074 423.639 372.664 423.639 374.648V374.801C423.639 376.035 423.4 377.145 422.924 378.129C422.455 379.105 421.779 379.867 420.897 380.414C420.022 380.961 419.014 381.234 417.873 381.234C416.154 381.234 414.76 380.637 413.69 379.441C412.627 378.246 412.096 376.664 412.096 374.695V374.543ZM414.275 374.801C414.275 376.207 414.6 377.336 415.248 378.188C415.904 379.039 416.779 379.465 417.873 379.465C418.975 379.465 419.85 379.035 420.498 378.176C421.147 377.309 421.471 376.098 421.471 374.543C421.471 373.152 421.139 372.027 420.475 371.168C419.818 370.301 418.943 369.867 417.85 369.867C416.779 369.867 415.916 370.293 415.26 371.145C414.604 371.996 414.275 373.215 414.275 374.801ZM435.626 381C435.501 380.75 435.399 380.305 435.321 379.664C434.313 380.711 433.11 381.234 431.712 381.234C430.462 381.234 429.434 380.883 428.63 380.18C427.833 379.469 427.434 378.57 427.434 377.484C427.434 376.164 427.934 375.141 428.934 374.414C429.942 373.68 431.356 373.312 433.176 373.312H435.286V372.316C435.286 371.559 435.059 370.957 434.606 370.512C434.153 370.059 433.485 369.832 432.602 369.832C431.829 369.832 431.18 370.027 430.657 370.418C430.133 370.809 429.872 371.281 429.872 371.836H427.692C427.692 371.203 427.915 370.594 428.36 370.008C428.813 369.414 429.423 368.945 430.188 368.602C430.962 368.258 431.809 368.086 432.731 368.086C434.192 368.086 435.337 368.453 436.165 369.188C436.993 369.914 437.423 370.918 437.454 372.199V378.035C437.454 379.199 437.602 380.125 437.899 380.812V381H435.626ZM432.028 379.348C432.708 379.348 433.352 379.172 433.962 378.82C434.571 378.469 435.012 378.012 435.286 377.449V374.848H433.587C430.93 374.848 429.602 375.625 429.602 377.18C429.602 377.859 429.829 378.391 430.282 378.773C430.735 379.156 431.317 379.348 432.028 379.348ZM447.378 379.465C448.152 379.465 448.827 379.23 449.405 378.762C449.984 378.293 450.304 377.707 450.366 377.004H452.417C452.378 377.73 452.128 378.422 451.667 379.078C451.206 379.734 450.589 380.258 449.816 380.648C449.05 381.039 448.238 381.234 447.378 381.234C445.652 381.234 444.277 380.66 443.253 379.512C442.238 378.355 441.73 376.777 441.73 374.777V374.414C441.73 373.18 441.956 372.082 442.409 371.121C442.863 370.16 443.511 369.414 444.355 368.883C445.206 368.352 446.21 368.086 447.366 368.086C448.788 368.086 449.968 368.512 450.905 369.363C451.851 370.215 452.355 371.32 452.417 372.68H450.366C450.304 371.859 449.991 371.188 449.429 370.664C448.874 370.133 448.187 369.867 447.366 369.867C446.265 369.867 445.409 370.266 444.8 371.062C444.198 371.852 443.898 372.996 443.898 374.496V374.906C443.898 376.367 444.198 377.492 444.8 378.281C445.402 379.07 446.261 379.465 447.378 379.465ZM458.463 369.855C459.424 368.676 460.674 368.086 462.213 368.086C464.892 368.086 466.244 369.598 466.267 372.621V381H464.099V372.609C464.092 371.695 463.881 371.02 463.467 370.582C463.06 370.145 462.424 369.926 461.556 369.926C460.853 369.926 460.236 370.113 459.705 370.488C459.174 370.863 458.76 371.355 458.463 371.965V381H456.295V363H458.463V369.855Z" fill="white"/>
<rect x="254" y="120" width="397" height="186" fill="#946772"/>
<path d="M294.527 152.02C294.527 153.691 294.246 155.152 293.684 156.402C293.121 157.645 292.324 158.594 291.293 159.25C290.262 159.906 289.059 160.234 287.684 160.234C286.34 160.234 285.148 159.906 284.109 159.25C283.07 158.586 282.262 157.645 281.684 156.426C281.113 155.199 280.82 153.781 280.805 152.172V150.941C280.805 149.301 281.09 147.852 281.66 146.594C282.23 145.336 283.035 144.375 284.074 143.711C285.121 143.039 286.316 142.703 287.66 142.703C289.027 142.703 290.23 143.035 291.27 143.699C292.316 144.355 293.121 145.312 293.684 146.57C294.246 147.82 294.527 149.277 294.527 150.941V152.02ZM292.289 150.918C292.289 148.895 291.883 147.344 291.07 146.266C290.258 145.18 289.121 144.637 287.66 144.637C286.238 144.637 285.117 145.18 284.297 146.266C283.484 147.344 283.066 148.844 283.043 150.766V152.02C283.043 153.98 283.453 155.523 284.273 156.648C285.102 157.766 286.238 158.324 287.684 158.324C289.137 158.324 290.262 157.797 291.059 156.742C291.855 155.68 292.266 154.16 292.289 152.184V150.918ZM301.475 147.32L301.545 148.914C302.514 147.695 303.78 147.086 305.342 147.086C308.022 147.086 309.374 148.598 309.397 151.621V160H307.229V151.609C307.221 150.695 307.01 150.02 306.596 149.582C306.19 149.145 305.553 148.926 304.686 148.926C303.983 148.926 303.366 149.113 302.835 149.488C302.303 149.863 301.889 150.355 301.592 150.965V160H299.424V147.32H301.475ZM319.368 160.234C317.65 160.234 316.251 159.672 315.173 158.547C314.095 157.414 313.556 155.902 313.556 154.012V153.613C313.556 152.355 313.794 151.234 314.271 150.25C314.755 149.258 315.427 148.484 316.286 147.93C317.153 147.367 318.091 147.086 319.099 147.086C320.747 147.086 322.028 147.629 322.943 148.715C323.857 149.801 324.314 151.355 324.314 153.379V154.281H315.724C315.755 155.531 316.118 156.543 316.814 157.316C317.517 158.082 318.407 158.465 319.485 158.465C320.251 158.465 320.9 158.309 321.431 157.996C321.962 157.684 322.427 157.27 322.825 156.754L324.15 157.785C323.087 159.418 321.493 160.234 319.368 160.234ZM319.099 148.867C318.224 148.867 317.489 149.188 316.896 149.828C316.302 150.461 315.935 151.352 315.794 152.5H322.146V152.336C322.083 151.234 321.786 150.383 321.255 149.781C320.724 149.172 320.005 148.867 319.099 148.867ZM336.428 160V142.938H341.244C342.729 142.938 344.041 143.266 345.182 143.922C346.323 144.578 347.201 145.512 347.819 146.723C348.444 147.934 348.76 149.324 348.768 150.895V151.984C348.768 153.594 348.455 155.004 347.83 156.215C347.213 157.426 346.326 158.355 345.17 159.004C344.022 159.652 342.682 159.984 341.151 160H336.428ZM338.678 144.789V158.16H341.045C342.78 158.16 344.127 157.621 345.088 156.543C346.057 155.465 346.541 153.93 346.541 151.938V150.941C346.541 149.004 346.084 147.5 345.17 146.43C344.264 145.352 342.975 144.805 341.303 144.789H338.678ZM356.055 160H353.887V147.32H356.055V160ZM353.712 143.957C353.712 143.605 353.817 143.309 354.028 143.066C354.247 142.824 354.567 142.703 354.989 142.703C355.411 142.703 355.731 142.824 355.95 143.066C356.169 143.309 356.278 143.605 356.278 143.957C356.278 144.309 356.169 144.602 355.95 144.836C355.731 145.07 355.411 145.188 354.989 145.188C354.567 145.188 354.247 145.07 354.028 144.836C353.817 144.602 353.712 144.309 353.712 143.957ZM363.015 147.32L363.074 148.727C364.003 147.633 365.257 147.086 366.835 147.086C368.609 147.086 369.816 147.766 370.456 149.125C370.878 148.516 371.425 148.023 372.097 147.648C372.777 147.273 373.577 147.086 374.499 147.086C377.281 147.086 378.695 148.559 378.742 151.504V160H376.574V151.633C376.574 150.727 376.367 150.051 375.952 149.605C375.538 149.152 374.843 148.926 373.867 148.926C373.062 148.926 372.394 149.168 371.863 149.652C371.331 150.129 371.023 150.773 370.937 151.586V160H368.757V151.691C368.757 149.848 367.855 148.926 366.05 148.926C364.628 148.926 363.656 149.531 363.132 150.742V160H360.964V147.32H363.015ZM388.725 160.234C387.006 160.234 385.607 159.672 384.529 158.547C383.451 157.414 382.912 155.902 382.912 154.012V153.613C382.912 152.355 383.15 151.234 383.627 150.25C384.111 149.258 384.783 148.484 385.643 147.93C386.51 147.367 387.447 147.086 388.455 147.086C390.103 147.086 391.385 147.629 392.299 148.715C393.213 149.801 393.67 151.355 393.67 153.379V154.281H385.08C385.111 155.531 385.475 156.543 386.17 157.316C386.873 158.082 387.764 158.465 388.842 158.465C389.607 158.465 390.256 158.309 390.787 157.996C391.318 157.684 391.783 157.27 392.182 156.754L393.506 157.785C392.443 159.418 390.85 160.234 388.725 160.234ZM388.455 148.867C387.58 148.867 386.846 149.188 386.252 149.828C385.658 150.461 385.291 151.352 385.15 152.5H391.502V152.336C391.439 151.234 391.143 150.383 390.611 149.781C390.08 149.172 389.361 148.867 388.455 148.867ZM399.68 147.32L399.75 148.914C400.719 147.695 401.985 147.086 403.547 147.086C406.227 147.086 407.579 148.598 407.602 151.621V160H405.434V151.609C405.426 150.695 405.215 150.02 404.801 149.582C404.395 149.145 403.758 148.926 402.891 148.926C402.188 148.926 401.571 149.113 401.04 149.488C400.508 149.863 400.094 150.355 399.797 150.965V160H397.629V147.32H399.68ZM419.694 156.637C419.694 156.051 419.472 155.598 419.026 155.277C418.589 154.949 417.819 154.668 416.718 154.434C415.624 154.199 414.753 153.918 414.105 153.59C413.464 153.262 412.987 152.871 412.675 152.418C412.37 151.965 412.218 151.426 412.218 150.801C412.218 149.762 412.655 148.883 413.53 148.164C414.413 147.445 415.538 147.086 416.905 147.086C418.343 147.086 419.507 147.457 420.398 148.199C421.296 148.941 421.745 149.891 421.745 151.047H419.565C419.565 150.453 419.312 149.941 418.804 149.512C418.304 149.082 417.671 148.867 416.905 148.867C416.116 148.867 415.499 149.039 415.054 149.383C414.608 149.727 414.386 150.176 414.386 150.73C414.386 151.254 414.593 151.648 415.007 151.914C415.421 152.18 416.167 152.434 417.245 152.676C418.331 152.918 419.21 153.207 419.882 153.543C420.554 153.879 421.05 154.285 421.37 154.762C421.698 155.23 421.862 155.805 421.862 156.484C421.862 157.617 421.409 158.527 420.503 159.215C419.597 159.895 418.421 160.234 416.976 160.234C415.96 160.234 415.062 160.055 414.28 159.695C413.499 159.336 412.886 158.836 412.44 158.195C412.003 157.547 411.784 156.848 411.784 156.098H413.952C413.991 156.824 414.28 157.402 414.819 157.832C415.366 158.254 416.085 158.465 416.976 158.465C417.796 158.465 418.452 158.301 418.944 157.973C419.444 157.637 419.694 157.191 419.694 156.637ZM428.482 160H426.314V147.32H428.482V160ZM426.138 143.957C426.138 143.605 426.244 143.309 426.455 143.066C426.673 142.824 426.994 142.703 427.416 142.703C427.837 142.703 428.158 142.824 428.377 143.066C428.595 143.309 428.705 143.605 428.705 143.957C428.705 144.309 428.595 144.602 428.377 144.836C428.158 145.07 427.837 145.188 427.416 145.188C426.994 145.188 426.673 145.07 426.455 144.836C426.244 144.602 426.138 144.309 426.138 143.957ZM432.828 153.543C432.828 152.301 433.07 151.184 433.555 150.191C434.047 149.199 434.727 148.434 435.594 147.895C436.469 147.355 437.465 147.086 438.582 147.086C440.309 147.086 441.703 147.684 442.766 148.879C443.836 150.074 444.371 151.664 444.371 153.648V153.801C444.371 155.035 444.133 156.145 443.656 157.129C443.188 158.105 442.512 158.867 441.629 159.414C440.754 159.961 439.746 160.234 438.606 160.234C436.887 160.234 435.492 159.637 434.422 158.441C433.36 157.246 432.828 155.664 432.828 153.695V153.543ZM435.008 153.801C435.008 155.207 435.332 156.336 435.981 157.188C436.637 158.039 437.512 158.465 438.606 158.465C439.707 158.465 440.582 158.035 441.231 157.176C441.879 156.309 442.203 155.098 442.203 153.543C442.203 152.152 441.871 151.027 441.207 150.168C440.551 149.301 439.676 148.867 438.582 148.867C437.512 148.867 436.649 149.293 435.992 150.145C435.336 150.996 435.008 152.215 435.008 153.801ZM450.581 147.32L450.651 148.914C451.62 147.695 452.885 147.086 454.448 147.086C457.128 147.086 458.479 148.598 458.503 151.621V160H456.335V151.609C456.327 150.695 456.116 150.02 455.702 149.582C455.296 149.145 454.659 148.926 453.792 148.926C453.089 148.926 452.471 149.113 451.94 149.488C451.409 149.863 450.995 150.355 450.698 150.965V160H448.53V147.32H450.581ZM471.04 160C470.915 159.75 470.814 159.305 470.736 158.664C469.728 159.711 468.525 160.234 467.126 160.234C465.876 160.234 464.849 159.883 464.044 159.18C463.247 158.469 462.849 157.57 462.849 156.484C462.849 155.164 463.349 154.141 464.349 153.414C465.357 152.68 466.771 152.312 468.591 152.312H470.7V151.316C470.7 150.559 470.474 149.957 470.021 149.512C469.568 149.059 468.9 148.832 468.017 148.832C467.243 148.832 466.595 149.027 466.072 149.418C465.548 149.809 465.286 150.281 465.286 150.836H463.107C463.107 150.203 463.329 149.594 463.775 149.008C464.228 148.414 464.837 147.945 465.603 147.602C466.376 147.258 467.224 147.086 468.146 147.086C469.607 147.086 470.751 147.453 471.579 148.188C472.408 148.914 472.837 149.918 472.868 151.199V157.035C472.868 158.199 473.017 159.125 473.314 159.812V160H471.04ZM467.443 158.348C468.122 158.348 468.767 158.172 469.376 157.82C469.986 157.469 470.427 157.012 470.7 156.449V153.848H469.001C466.345 153.848 465.017 154.625 465.017 156.18C465.017 156.859 465.243 157.391 465.697 157.773C466.15 158.156 466.732 158.348 467.443 158.348ZM480.062 160H477.894V142H480.062V160ZM505.688 154.586C505.478 156.391 504.81 157.785 503.685 158.77C502.567 159.746 501.079 160.234 499.22 160.234C497.204 160.234 495.587 159.512 494.368 158.066C493.157 156.621 492.552 154.688 492.552 152.266V150.625C492.552 149.039 492.833 147.645 493.395 146.441C493.966 145.238 494.77 144.316 495.81 143.676C496.849 143.027 498.052 142.703 499.419 142.703C501.231 142.703 502.685 143.211 503.778 144.227C504.872 145.234 505.509 146.633 505.688 148.422H503.427C503.231 147.062 502.806 146.078 502.149 145.469C501.501 144.859 500.591 144.555 499.419 144.555C497.981 144.555 496.853 145.086 496.032 146.148C495.22 147.211 494.813 148.723 494.813 150.684V152.336C494.813 154.188 495.2 155.66 495.974 156.754C496.747 157.848 497.829 158.395 499.22 158.395C500.47 158.395 501.427 158.113 502.091 157.551C502.763 156.98 503.208 155.992 503.427 154.586H505.688ZM516.082 152.395C514.152 151.84 512.746 151.16 511.863 150.355C510.988 149.543 510.55 148.543 510.55 147.355C510.55 146.012 511.085 144.902 512.156 144.027C513.234 143.145 514.632 142.703 516.351 142.703C517.523 142.703 518.566 142.93 519.48 143.383C520.402 143.836 521.113 144.461 521.613 145.258C522.121 146.055 522.375 146.926 522.375 147.871H520.113C520.113 146.84 519.785 146.031 519.128 145.445C518.472 144.852 517.546 144.555 516.351 144.555C515.242 144.555 514.375 144.801 513.75 145.293C513.132 145.777 512.824 146.453 512.824 147.32C512.824 148.016 513.117 148.605 513.703 149.09C514.296 149.566 515.3 150.004 516.714 150.402C518.136 150.801 519.246 151.242 520.042 151.727C520.847 152.203 521.441 152.762 521.824 153.402C522.214 154.043 522.41 154.797 522.41 155.664C522.41 157.047 521.871 158.156 520.792 158.992C519.714 159.82 518.273 160.234 516.468 160.234C515.296 160.234 514.203 160.012 513.187 159.566C512.171 159.113 511.386 158.496 510.832 157.715C510.285 156.934 510.011 156.047 510.011 155.055H512.273C512.273 156.086 512.652 156.902 513.41 157.504C514.175 158.098 515.195 158.395 516.468 158.395C517.656 158.395 518.566 158.152 519.199 157.668C519.832 157.184 520.148 156.523 520.148 155.688C520.148 154.852 519.855 154.207 519.269 153.754C518.683 153.293 517.621 152.84 516.082 152.395ZM532.615 152.395C530.686 151.84 529.279 151.16 528.397 150.355C527.522 149.543 527.084 148.543 527.084 147.355C527.084 146.012 527.619 144.902 528.69 144.027C529.768 143.145 531.166 142.703 532.885 142.703C534.057 142.703 535.1 142.93 536.014 143.383C536.936 143.836 537.647 144.461 538.147 145.258C538.654 146.055 538.908 146.926 538.908 147.871H536.647C536.647 146.84 536.318 146.031 535.662 145.445C535.006 144.852 534.08 144.555 532.885 144.555C531.775 144.555 530.908 144.801 530.283 145.293C529.666 145.777 529.357 146.453 529.357 147.32C529.357 148.016 529.65 148.605 530.236 149.09C530.83 149.566 531.834 150.004 533.248 150.402C534.67 150.801 535.779 151.242 536.576 151.727C537.381 152.203 537.975 152.762 538.357 153.402C538.748 154.043 538.943 154.797 538.943 155.664C538.943 157.047 538.404 158.156 537.326 158.992C536.248 159.82 534.807 160.234 533.002 160.234C531.83 160.234 530.736 160.012 529.721 159.566C528.705 159.113 527.92 158.496 527.365 157.715C526.818 156.934 526.545 156.047 526.545 155.055H528.807C528.807 156.086 529.186 156.902 529.943 157.504C530.709 158.098 531.729 158.395 533.002 158.395C534.19 158.395 535.1 158.152 535.732 157.668C536.365 157.184 536.682 156.523 536.682 155.688C536.682 154.852 536.389 154.207 535.803 153.754C535.217 153.293 534.154 152.84 532.615 152.395ZM283.664 186.16H291.75V188H281.402V170.938H283.664V186.16ZM303.667 188C303.542 187.75 303.44 187.305 303.362 186.664C302.354 187.711 301.151 188.234 299.753 188.234C298.503 188.234 297.475 187.883 296.67 187.18C295.874 186.469 295.475 185.57 295.475 184.484C295.475 183.164 295.975 182.141 296.975 181.414C297.983 180.68 299.397 180.312 301.217 180.312H303.327V179.316C303.327 178.559 303.1 177.957 302.647 177.512C302.194 177.059 301.526 176.832 300.643 176.832C299.87 176.832 299.221 177.027 298.698 177.418C298.174 177.809 297.913 178.281 297.913 178.836H295.733C295.733 178.203 295.956 177.594 296.401 177.008C296.854 176.414 297.463 175.945 298.229 175.602C299.003 175.258 299.85 175.086 300.772 175.086C302.233 175.086 303.378 175.453 304.206 176.188C305.034 176.914 305.463 177.918 305.495 179.199V185.035C305.495 186.199 305.643 187.125 305.94 187.812V188H303.667ZM300.069 186.348C300.749 186.348 301.393 186.172 302.003 185.82C302.612 185.469 303.053 185.012 303.327 184.449V181.848H301.628C298.971 181.848 297.643 182.625 297.643 184.18C297.643 184.859 297.87 185.391 298.323 185.773C298.776 186.156 299.358 186.348 300.069 186.348ZM314.294 184.824L317.247 175.32H319.568L314.47 189.957C313.681 192.066 312.427 193.121 310.708 193.121L310.298 193.086L309.489 192.934V191.176L310.075 191.223C310.81 191.223 311.38 191.074 311.786 190.777C312.2 190.48 312.54 189.938 312.806 189.148L313.286 187.859L308.763 175.32H311.13L314.294 184.824ZM322.191 181.543C322.191 180.301 322.433 179.184 322.918 178.191C323.41 177.199 324.09 176.434 324.957 175.895C325.832 175.355 326.828 175.086 327.945 175.086C329.672 175.086 331.066 175.684 332.129 176.879C333.199 178.074 333.734 179.664 333.734 181.648V181.801C333.734 183.035 333.496 184.145 333.019 185.129C332.55 186.105 331.875 186.867 330.992 187.414C330.117 187.961 329.109 188.234 327.968 188.234C326.25 188.234 324.855 187.637 323.785 186.441C322.722 185.246 322.191 183.664 322.191 181.695V181.543ZM324.371 181.801C324.371 183.207 324.695 184.336 325.343 185.188C326 186.039 326.875 186.465 327.968 186.465C329.07 186.465 329.945 186.035 330.593 185.176C331.242 184.309 331.566 183.098 331.566 181.543C331.566 180.152 331.234 179.027 330.57 178.168C329.914 177.301 329.039 176.867 327.945 176.867C326.875 176.867 326.011 177.293 325.355 178.145C324.699 178.996 324.371 180.215 324.371 181.801ZM345.721 186.746C344.877 187.738 343.639 188.234 342.006 188.234C340.655 188.234 339.623 187.844 338.912 187.062C338.209 186.273 337.854 185.109 337.846 183.57V175.32H340.014V183.512C340.014 185.434 340.795 186.395 342.358 186.395C344.014 186.395 345.115 185.777 345.662 184.543V175.32H347.83V188H345.768L345.721 186.746ZM355.516 172.25V175.32H357.884V176.996H355.516V184.859C355.516 185.367 355.622 185.75 355.833 186.008C356.044 186.258 356.403 186.383 356.911 186.383C357.161 186.383 357.505 186.336 357.942 186.242V188C357.372 188.156 356.817 188.234 356.278 188.234C355.309 188.234 354.579 187.941 354.087 187.355C353.595 186.77 353.348 185.938 353.348 184.859V176.996H351.04V175.32H353.348V172.25H355.516ZM372.928 170.938L378.506 184.859L384.084 170.938H387.002V188H384.752V181.355L384.963 174.184L379.361 188H377.639L372.049 174.219L372.271 181.355V188H370.021V170.938H372.928ZM391.922 181.543C391.922 180.301 392.165 179.184 392.649 178.191C393.141 177.199 393.821 176.434 394.688 175.895C395.563 175.355 396.559 175.086 397.676 175.086C399.403 175.086 400.797 175.684 401.86 176.879C402.93 178.074 403.465 179.664 403.465 181.648V181.801C403.465 183.035 403.227 184.145 402.75 185.129C402.282 186.105 401.606 186.867 400.723 187.414C399.848 187.961 398.84 188.234 397.7 188.234C395.981 188.234 394.586 187.637 393.516 186.441C392.454 185.246 391.922 183.664 391.922 181.695V181.543ZM394.102 181.801C394.102 183.207 394.426 184.336 395.075 185.188C395.731 186.039 396.606 186.465 397.7 186.465C398.801 186.465 399.676 186.035 400.325 185.176C400.973 184.309 401.297 183.098 401.297 181.543C401.297 180.152 400.965 179.027 400.301 178.168C399.645 177.301 398.77 176.867 397.676 176.867C396.606 176.867 395.743 177.293 395.086 178.145C394.43 178.996 394.102 180.215 394.102 181.801ZM407.097 181.555C407.097 179.609 407.558 178.047 408.48 176.867C409.401 175.68 410.608 175.086 412.101 175.086C413.585 175.086 414.761 175.594 415.628 176.609V170H417.796V188H415.804L415.698 186.641C414.831 187.703 413.624 188.234 412.077 188.234C410.608 188.234 409.409 187.633 408.48 186.43C407.558 185.227 407.097 183.656 407.097 181.719V181.555ZM409.265 181.801C409.265 183.238 409.562 184.363 410.155 185.176C410.749 185.988 411.569 186.395 412.616 186.395C413.991 186.395 414.995 185.777 415.628 184.543V178.719C414.98 177.523 413.983 176.926 412.64 176.926C411.577 176.926 410.749 177.336 410.155 178.156C409.562 178.977 409.265 180.191 409.265 181.801ZM430.439 186.746C429.595 187.738 428.357 188.234 426.724 188.234C425.373 188.234 424.341 187.844 423.63 187.062C422.927 186.273 422.572 185.109 422.564 183.57V175.32H424.732V183.512C424.732 185.434 425.513 186.395 427.076 186.395C428.732 186.395 429.834 185.777 430.38 184.543V175.32H432.548V188H430.486L430.439 186.746ZM439.649 188H437.481V170H439.649V188ZM449.831 188.234C448.112 188.234 446.714 187.672 445.635 186.547C444.557 185.414 444.018 183.902 444.018 182.012V181.613C444.018 180.355 444.257 179.234 444.733 178.25C445.217 177.258 445.889 176.484 446.749 175.93C447.616 175.367 448.553 175.086 449.561 175.086C451.21 175.086 452.491 175.629 453.405 176.715C454.319 177.801 454.776 179.355 454.776 181.379V182.281H446.186C446.217 183.531 446.581 184.543 447.276 185.316C447.979 186.082 448.87 186.465 449.948 186.465C450.714 186.465 451.362 186.309 451.893 185.996C452.425 185.684 452.889 185.27 453.288 184.754L454.612 185.785C453.55 187.418 451.956 188.234 449.831 188.234ZM449.561 176.867C448.686 176.867 447.952 177.188 447.358 177.828C446.764 178.461 446.397 179.352 446.257 180.5H452.608V180.336C452.546 179.234 452.249 178.383 451.717 177.781C451.186 177.172 450.467 176.867 449.561 176.867ZM282.996 216H280.828V203.32H282.996V216ZM280.652 199.957C280.652 199.605 280.758 199.309 280.969 199.066C281.188 198.824 281.508 198.703 281.93 198.703C282.352 198.703 282.672 198.824 282.891 199.066C283.109 199.309 283.219 199.605 283.219 199.957C283.219 200.309 283.109 200.602 282.891 200.836C282.672 201.07 282.352 201.188 281.93 201.188C281.508 201.188 281.188 201.07 280.969 200.836C280.758 200.602 280.652 200.309 280.652 199.957ZM287.963 214.863C287.963 214.488 288.073 214.176 288.292 213.926C288.518 213.676 288.854 213.551 289.299 213.551C289.745 213.551 290.081 213.676 290.307 213.926C290.542 214.176 290.659 214.488 290.659 214.863C290.659 215.223 290.542 215.523 290.307 215.766C290.081 216.008 289.745 216.129 289.299 216.129C288.854 216.129 288.518 216.008 288.292 215.766C288.073 215.523 287.963 215.223 287.963 214.863ZM300.946 216.234C299.228 216.234 297.829 215.672 296.751 214.547C295.673 213.414 295.134 211.902 295.134 210.012V209.613C295.134 208.355 295.372 207.234 295.849 206.25C296.333 205.258 297.005 204.484 297.864 203.93C298.732 203.367 299.669 203.086 300.677 203.086C302.325 203.086 303.607 203.629 304.521 204.715C305.435 205.801 305.892 207.355 305.892 209.379V210.281H297.302C297.333 211.531 297.696 212.543 298.392 213.316C299.095 214.082 299.985 214.465 301.064 214.465C301.829 214.465 302.478 214.309 303.009 213.996C303.54 213.684 304.005 213.27 304.403 212.754L305.728 213.785C304.665 215.418 303.071 216.234 300.946 216.234ZM300.677 204.867C299.802 204.867 299.068 205.188 298.474 205.828C297.88 206.461 297.513 207.352 297.372 208.5H303.724V208.336C303.661 207.234 303.364 206.383 302.833 205.781C302.302 205.172 301.583 204.867 300.677 204.867ZM309.898 214.863C309.898 214.488 310.007 214.176 310.226 213.926C310.453 213.676 310.789 213.551 311.234 213.551C311.679 213.551 312.015 213.676 312.242 213.926C312.476 214.176 312.593 214.488 312.593 214.863C312.593 215.223 312.476 215.523 312.242 215.766C312.015 216.008 311.679 216.129 311.234 216.129C310.789 216.129 310.453 216.008 310.226 215.766C310.007 215.523 309.898 215.223 309.898 214.863ZM327.368 216H325.2V198H327.368V216ZM340.117 216C339.992 215.75 339.89 215.305 339.812 214.664C338.804 215.711 337.601 216.234 336.202 216.234C334.952 216.234 333.925 215.883 333.12 215.18C332.324 214.469 331.925 213.57 331.925 212.484C331.925 211.164 332.425 210.141 333.425 209.414C334.433 208.68 335.847 208.312 337.667 208.312H339.777V207.316C339.777 206.559 339.55 205.957 339.097 205.512C338.644 205.059 337.976 204.832 337.093 204.832C336.32 204.832 335.671 205.027 335.148 205.418C334.624 205.809 334.363 206.281 334.363 206.836H332.183C332.183 206.203 332.406 205.594 332.851 205.008C333.304 204.414 333.913 203.945 334.679 203.602C335.452 203.258 336.3 203.086 337.222 203.086C338.683 203.086 339.827 203.453 340.656 204.188C341.484 204.914 341.913 205.918 341.945 207.199V213.035C341.945 214.199 342.093 215.125 342.39 215.812V216H340.117ZM336.519 214.348C337.199 214.348 337.843 214.172 338.452 213.82C339.062 213.469 339.503 213.012 339.777 212.449V209.848H338.077C335.421 209.848 334.093 210.625 334.093 212.18C334.093 212.859 334.32 213.391 334.773 213.773C335.226 214.156 335.808 214.348 336.519 214.348ZM350.744 212.824L353.697 203.32H356.018L350.92 217.957C350.131 220.066 348.877 221.121 347.158 221.121L346.748 221.086L345.939 220.934V219.176L346.525 219.223C347.26 219.223 347.83 219.074 348.236 218.777C348.65 218.48 348.99 217.938 349.256 217.148L349.736 215.859L345.213 203.32H347.58L350.744 212.824ZM358.641 209.543C358.641 208.301 358.883 207.184 359.368 206.191C359.86 205.199 360.54 204.434 361.407 203.895C362.282 203.355 363.278 203.086 364.395 203.086C366.122 203.086 367.516 203.684 368.579 204.879C369.649 206.074 370.184 207.664 370.184 209.648V209.801C370.184 211.035 369.946 212.145 369.469 213.129C369 214.105 368.325 214.867 367.442 215.414C366.567 215.961 365.559 216.234 364.418 216.234C362.7 216.234 361.305 215.637 360.235 214.441C359.172 213.246 358.641 211.664 358.641 209.695V209.543ZM360.821 209.801C360.821 211.207 361.145 212.336 361.793 213.188C362.45 214.039 363.325 214.465 364.418 214.465C365.52 214.465 366.395 214.035 367.043 213.176C367.692 212.309 368.016 211.098 368.016 209.543C368.016 208.152 367.684 207.027 367.02 206.168C366.364 205.301 365.489 204.867 364.395 204.867C363.325 204.867 362.461 205.293 361.805 206.145C361.149 206.996 360.821 208.215 360.821 209.801ZM382.171 214.746C381.327 215.738 380.089 216.234 378.456 216.234C377.105 216.234 376.073 215.844 375.362 215.062C374.659 214.273 374.304 213.109 374.296 211.57V203.32H376.464V211.512C376.464 213.434 377.245 214.395 378.808 214.395C380.464 214.395 381.565 213.777 382.112 212.543V203.32H384.28V216H382.218L382.171 214.746ZM391.966 200.25V203.32H394.334V204.996H391.966V212.859C391.966 213.367 392.072 213.75 392.283 214.008C392.494 214.258 392.853 214.383 393.361 214.383C393.611 214.383 393.955 214.336 394.392 214.242V216C393.822 216.156 393.267 216.234 392.728 216.234C391.759 216.234 391.029 215.941 390.537 215.355C390.045 214.77 389.798 213.938 389.798 212.859V204.996H387.49V203.32H389.798V200.25H391.966ZM408.065 216H405.897V203.32H408.065V216ZM405.721 199.957C405.721 199.605 405.827 199.309 406.038 199.066C406.257 198.824 406.577 198.703 406.999 198.703C407.421 198.703 407.741 198.824 407.96 199.066C408.178 199.309 408.288 199.605 408.288 199.957C408.288 200.309 408.178 200.602 407.96 200.836C407.741 201.07 407.421 201.188 406.999 201.188C406.577 201.188 406.257 201.07 406.038 200.836C405.827 200.602 405.721 200.309 405.721 199.957ZM415.927 200.25V203.32H418.294V204.996H415.927V212.859C415.927 213.367 416.033 213.75 416.243 214.008C416.454 214.258 416.814 214.383 417.322 214.383C417.572 214.383 417.915 214.336 418.353 214.242V216C417.783 216.156 417.228 216.234 416.689 216.234C415.72 216.234 414.99 215.941 414.497 215.355C414.005 214.77 413.759 213.938 413.759 212.859V204.996H411.45V203.32H413.759V200.25H415.927ZM427.539 216.234C425.82 216.234 424.422 215.672 423.344 214.547C422.265 213.414 421.726 211.902 421.726 210.012V209.613C421.726 208.355 421.965 207.234 422.441 206.25C422.926 205.258 423.598 204.484 424.457 203.93C425.324 203.367 426.262 203.086 427.269 203.086C428.918 203.086 430.199 203.629 431.113 204.715C432.027 205.801 432.484 207.355 432.484 209.379V210.281H423.894C423.926 211.531 424.289 212.543 424.984 213.316C425.687 214.082 426.578 214.465 427.656 214.465C428.422 214.465 429.07 214.309 429.601 213.996C430.133 213.684 430.598 213.27 430.996 212.754L432.32 213.785C431.258 215.418 429.664 216.234 427.539 216.234ZM427.269 204.867C426.394 204.867 425.66 205.188 425.066 205.828C424.473 206.461 424.105 207.352 423.965 208.5H430.316V208.336C430.254 207.234 429.957 206.383 429.426 205.781C428.894 205.172 428.176 204.867 427.269 204.867ZM438.483 203.32L438.541 204.727C439.471 203.633 440.725 203.086 442.303 203.086C444.077 203.086 445.284 203.766 445.924 205.125C446.346 204.516 446.893 204.023 447.565 203.648C448.245 203.273 449.045 203.086 449.967 203.086C452.748 203.086 454.163 204.559 454.209 207.504V216H452.041V207.633C452.041 206.727 451.834 206.051 451.42 205.605C451.006 205.152 450.311 204.926 449.334 204.926C448.53 204.926 447.862 205.168 447.33 205.652C446.799 206.129 446.491 206.773 446.405 207.586V216H444.225V207.691C444.225 205.848 443.323 204.926 441.518 204.926C440.096 204.926 439.123 205.531 438.6 206.742V216H436.432V203.32H438.483ZM466.313 212.637C466.313 212.051 466.091 211.598 465.645 211.277C465.208 210.949 464.438 210.668 463.337 210.434C462.243 210.199 461.372 209.918 460.724 209.59C460.083 209.262 459.606 208.871 459.294 208.418C458.989 207.965 458.837 207.426 458.837 206.801C458.837 205.762 459.274 204.883 460.149 204.164C461.032 203.445 462.157 203.086 463.524 203.086C464.962 203.086 466.126 203.457 467.017 204.199C467.915 204.941 468.364 205.891 468.364 207.047H466.185C466.185 206.453 465.931 205.941 465.423 205.512C464.923 205.082 464.29 204.867 463.524 204.867C462.735 204.867 462.118 205.039 461.673 205.383C461.228 205.727 461.005 206.176 461.005 206.73C461.005 207.254 461.212 207.648 461.626 207.914C462.04 208.18 462.786 208.434 463.864 208.676C464.95 208.918 465.829 209.207 466.501 209.543C467.173 209.879 467.669 210.285 467.989 210.762C468.317 211.23 468.481 211.805 468.481 212.484C468.481 213.617 468.028 214.527 467.122 215.215C466.216 215.895 465.04 216.234 463.595 216.234C462.579 216.234 461.681 216.055 460.899 215.695C460.118 215.336 459.505 214.836 459.06 214.195C458.622 213.547 458.403 212.848 458.403 212.098H460.571C460.61 212.824 460.899 213.402 461.438 213.832C461.985 214.254 462.704 214.465 463.595 214.465C464.415 214.465 465.071 214.301 465.563 213.973C466.063 213.637 466.313 213.191 466.313 212.637ZM482.494 216H480.326V203.32H482.494V216ZM480.15 199.957C480.15 199.605 480.256 199.309 480.467 199.066C480.686 198.824 481.006 198.703 481.428 198.703C481.85 198.703 482.17 198.824 482.389 199.066C482.607 199.309 482.717 199.605 482.717 199.957C482.717 200.309 482.607 200.602 482.389 200.836C482.17 201.07 481.85 201.188 481.428 201.188C481.006 201.188 480.686 201.07 480.467 200.836C480.256 200.602 480.15 200.309 480.15 199.957ZM489.465 203.32L489.536 204.914C490.505 203.695 491.77 203.086 493.333 203.086C496.012 203.086 497.364 204.598 497.387 207.621V216H495.219V207.609C495.212 206.695 495.001 206.02 494.587 205.582C494.18 205.145 493.544 204.926 492.676 204.926C491.973 204.926 491.356 205.113 490.825 205.488C490.294 205.863 489.88 206.355 489.583 206.965V216H487.415V203.32H489.465ZM514.752 216.234C513.033 216.234 511.635 215.672 510.556 214.547C509.478 213.414 508.939 211.902 508.939 210.012V209.613C508.939 208.355 509.178 207.234 509.654 206.25C510.138 205.258 510.81 204.484 511.67 203.93C512.537 203.367 513.474 203.086 514.482 203.086C516.131 203.086 517.412 203.629 518.326 204.715C519.24 205.801 519.697 207.355 519.697 209.379V210.281H511.107C511.138 211.531 511.502 212.543 512.197 213.316C512.9 214.082 513.791 214.465 514.869 214.465C515.635 214.465 516.283 214.309 516.814 213.996C517.345 213.684 517.81 213.27 518.209 212.754L519.533 213.785C518.47 215.418 516.877 216.234 514.752 216.234ZM514.482 204.867C513.607 204.867 512.873 205.188 512.279 205.828C511.685 206.461 511.318 207.352 511.178 208.5H517.529V208.336C517.467 207.234 517.17 206.383 516.638 205.781C516.107 205.172 515.388 204.867 514.482 204.867ZM526.012 216H523.844V203.32H526.012V216ZM523.668 199.957C523.668 199.605 523.774 199.309 523.985 199.066C524.203 198.824 524.524 198.703 524.946 198.703C525.368 198.703 525.688 198.824 525.907 199.066C526.125 199.309 526.235 199.605 526.235 199.957C526.235 200.309 526.125 200.602 525.907 200.836C525.688 201.07 525.368 201.188 524.946 201.188C524.524 201.188 524.203 201.07 523.985 200.836C523.774 200.602 523.668 200.309 523.668 199.957ZM533.874 200.25V203.32H536.241V204.996H533.874V212.859C533.874 213.367 533.979 213.75 534.19 214.008C534.401 214.258 534.761 214.383 535.268 214.383C535.518 214.383 535.862 214.336 536.3 214.242V216C535.729 216.156 535.175 216.234 534.636 216.234C533.667 216.234 532.936 215.941 532.444 215.355C531.952 214.77 531.706 213.938 531.706 212.859V204.996H529.397V203.32H531.706V200.25H533.874ZM542.392 204.855C543.353 203.676 544.603 203.086 546.142 203.086C548.822 203.086 550.173 204.598 550.197 207.621V216H548.029V207.609C548.021 206.695 547.81 206.02 547.396 205.582C546.99 205.145 546.353 204.926 545.486 204.926C544.783 204.926 544.165 205.113 543.634 205.488C543.103 205.863 542.689 206.355 542.392 206.965V216H540.224V198H542.392V204.855ZM560.145 216.234C558.426 216.234 557.027 215.672 555.949 214.547C554.871 213.414 554.332 211.902 554.332 210.012V209.613C554.332 208.355 554.57 207.234 555.047 206.25C555.531 205.258 556.203 204.484 557.062 203.93C557.93 203.367 558.867 203.086 559.875 203.086C561.523 203.086 562.805 203.629 563.719 204.715C564.633 205.801 565.09 207.355 565.09 209.379V210.281H556.5C556.531 211.531 556.895 212.543 557.59 213.316C558.293 214.082 559.184 214.465 560.262 214.465C561.027 214.465 561.676 214.309 562.207 213.996C562.738 213.684 563.203 213.27 563.602 212.754L564.926 213.785C563.863 215.418 562.27 216.234 560.145 216.234ZM559.875 204.867C559 204.867 558.266 205.188 557.672 205.828C557.078 206.461 556.711 207.352 556.57 208.5H562.922V208.336C562.859 207.234 562.562 206.383 562.031 205.781C561.5 205.172 560.781 204.867 559.875 204.867ZM575.178 205.266C574.85 205.211 574.495 205.184 574.112 205.184C572.69 205.184 571.725 205.789 571.217 207V216H569.049V203.32H571.159L571.194 204.785C571.905 203.652 572.913 203.086 574.217 203.086C574.639 203.086 574.96 203.141 575.178 203.25V205.266ZM286.77 233.266C286.441 233.211 286.086 233.184 285.703 233.184C284.281 233.184 283.316 233.789 282.809 235V244H280.641V231.32H282.75L282.785 232.785C283.496 231.652 284.504 231.086 285.809 231.086C286.23 231.086 286.551 231.141 286.77 231.25V233.266ZM289.405 237.543C289.405 236.301 289.647 235.184 290.131 234.191C290.624 233.199 291.303 232.434 292.17 231.895C293.045 231.355 294.042 231.086 295.159 231.086C296.885 231.086 298.28 231.684 299.342 232.879C300.413 234.074 300.948 235.664 300.948 237.648V237.801C300.948 239.035 300.71 240.145 300.233 241.129C299.764 242.105 299.088 242.867 298.206 243.414C297.331 243.961 296.323 244.234 295.182 244.234C293.463 244.234 292.069 243.637 290.999 242.441C289.936 241.246 289.405 239.664 289.405 237.695V237.543ZM291.585 237.801C291.585 239.207 291.909 240.336 292.557 241.188C293.213 242.039 294.088 242.465 295.182 242.465C296.284 242.465 297.159 242.035 297.807 241.176C298.456 240.309 298.78 239.098 298.78 237.543C298.78 236.152 298.448 235.027 297.784 234.168C297.128 233.301 296.253 232.867 295.159 232.867C294.088 232.867 293.225 233.293 292.569 234.145C291.913 234.996 291.585 236.215 291.585 237.801ZM316.333 241.012L318.771 231.32H320.939L317.247 244H315.489L312.407 234.391L309.407 244H307.65L303.97 231.32H306.126L308.622 240.812L311.575 231.32H313.321L316.333 241.012ZM331.412 237.543C331.412 236.301 331.655 235.184 332.139 234.191C332.631 233.199 333.311 232.434 334.178 231.895C335.053 231.355 336.049 231.086 337.166 231.086C338.893 231.086 340.287 231.684 341.35 232.879C342.42 234.074 342.955 235.664 342.955 237.648V237.801C342.955 239.035 342.717 240.145 342.24 241.129C341.772 242.105 341.096 242.867 340.213 243.414C339.338 243.961 338.33 244.234 337.19 244.234C335.471 244.234 334.076 243.637 333.006 242.441C331.944 241.246 331.412 239.664 331.412 237.695V237.543ZM333.592 237.801C333.592 239.207 333.916 240.336 334.565 241.188C335.221 242.039 336.096 242.465 337.19 242.465C338.291 242.465 339.166 242.035 339.815 241.176C340.463 240.309 340.787 239.098 340.787 237.543C340.787 236.152 340.455 235.027 339.791 234.168C339.135 233.301 338.26 232.867 337.166 232.867C336.096 232.867 335.233 233.293 334.576 234.145C333.92 234.996 333.592 236.215 333.592 237.801ZM353.243 233.266C352.915 233.211 352.559 233.184 352.177 233.184C350.755 233.184 349.79 233.789 349.282 235V244H347.114V231.32H349.223L349.259 232.785C349.97 231.652 350.977 231.086 352.282 231.086C352.704 231.086 353.024 231.141 353.243 231.25V233.266ZM369.166 242.465C369.939 242.465 370.615 242.23 371.193 241.762C371.771 241.293 372.092 240.707 372.154 240.004H374.205C374.166 240.73 373.916 241.422 373.455 242.078C372.994 242.734 372.377 243.258 371.603 243.648C370.838 244.039 370.025 244.234 369.166 244.234C367.439 244.234 366.064 243.66 365.041 242.512C364.025 241.355 363.518 239.777 363.518 237.777V237.414C363.518 236.18 363.744 235.082 364.197 234.121C364.65 233.16 365.299 232.414 366.143 231.883C366.994 231.352 367.998 231.086 369.154 231.086C370.576 231.086 371.756 231.512 372.693 232.363C373.639 233.215 374.143 234.32 374.205 235.68H372.154C372.092 234.859 371.779 234.188 371.217 233.664C370.662 233.133 369.975 232.867 369.154 232.867C368.053 232.867 367.197 233.266 366.588 234.062C365.986 234.852 365.685 235.996 365.685 237.496V237.906C365.685 239.367 365.986 240.492 366.588 241.281C367.189 242.07 368.049 242.465 369.166 242.465ZM377.508 237.543C377.508 236.301 377.75 235.184 378.235 234.191C378.727 233.199 379.407 232.434 380.274 231.895C381.149 231.355 382.145 231.086 383.262 231.086C384.989 231.086 386.383 231.684 387.446 232.879C388.516 234.074 389.051 235.664 389.051 237.648V237.801C389.051 239.035 388.813 240.145 388.336 241.129C387.868 242.105 387.192 242.867 386.309 243.414C385.434 243.961 384.426 244.234 383.286 244.234C381.567 244.234 380.172 243.637 379.102 242.441C378.04 241.246 377.508 239.664 377.508 237.695V237.543ZM379.688 237.801C379.688 239.207 380.012 240.336 380.661 241.188C381.317 242.039 382.192 242.465 383.286 242.465C384.387 242.465 385.262 242.035 385.911 241.176C386.559 240.309 386.883 239.098 386.883 237.543C386.883 236.152 386.551 235.027 385.887 234.168C385.231 233.301 384.356 232.867 383.262 232.867C382.192 232.867 381.329 233.293 380.672 234.145C380.016 234.996 379.688 236.215 379.688 237.801ZM395.565 244H393.397V226H395.565V244ZM408.314 242.746C407.47 243.738 406.232 244.234 404.599 244.234C403.248 244.234 402.216 243.844 401.505 243.062C400.802 242.273 400.447 241.109 400.439 239.57V231.32H402.607V239.512C402.607 241.434 403.388 242.395 404.951 242.395C406.607 242.395 407.709 241.777 408.255 240.543V231.32H410.423V244H408.361L408.314 242.746ZM417.207 231.32L417.266 232.727C418.195 231.633 419.449 231.086 421.027 231.086C422.801 231.086 424.008 231.766 424.649 233.125C425.07 232.516 425.617 232.023 426.289 231.648C426.969 231.273 427.77 231.086 428.692 231.086C431.473 231.086 432.887 232.559 432.934 235.504V244H430.766V235.633C430.766 234.727 430.559 234.051 430.145 233.605C429.731 233.152 429.035 232.926 428.059 232.926C427.254 232.926 426.586 233.168 426.055 233.652C425.524 234.129 425.215 234.773 425.129 235.586V244H422.949V235.691C422.949 233.848 422.047 232.926 420.242 232.926C418.82 232.926 417.848 233.531 417.324 234.742V244H415.156V231.32H417.207ZM439.706 231.32L439.776 232.914C440.745 231.695 442.01 231.086 443.573 231.086C446.253 231.086 447.604 232.598 447.628 235.621V244H445.46V235.609C445.452 234.695 445.241 234.02 444.827 233.582C444.421 233.145 443.784 232.926 442.917 232.926C442.214 232.926 441.596 233.113 441.065 233.488C440.534 233.863 440.12 234.355 439.823 234.965V244H437.655V231.32H439.706ZM291.375 265.801C291.375 267.738 290.93 269.297 290.039 270.477C289.148 271.648 287.953 272.234 286.453 272.234C284.852 272.234 283.613 271.668 282.738 270.535L282.633 272H280.641V254H282.809V260.715C283.684 259.629 284.891 259.086 286.43 259.086C287.969 259.086 289.176 259.668 290.051 260.832C290.934 261.996 291.375 263.59 291.375 265.613V265.801ZM289.207 265.555C289.207 264.078 288.922 262.938 288.352 262.133C287.781 261.328 286.961 260.926 285.891 260.926C284.461 260.926 283.434 261.59 282.809 262.918V268.402C283.473 269.73 284.508 270.395 285.914 270.395C286.953 270.395 287.762 269.992 288.34 269.188C288.918 268.383 289.207 267.172 289.207 265.555ZM303.385 270.746C302.542 271.738 301.303 272.234 299.67 272.234C298.319 272.234 297.288 271.844 296.577 271.062C295.874 270.273 295.518 269.109 295.51 267.57V259.32H297.678V267.512C297.678 269.434 298.46 270.395 300.022 270.395C301.678 270.395 302.78 269.777 303.327 268.543V259.32H305.495V272H303.432L303.385 270.746ZM313.181 256.25V259.32H315.548V260.996H313.181V268.859C313.181 269.367 313.286 269.75 313.497 270.008C313.708 270.258 314.068 270.383 314.575 270.383C314.825 270.383 315.169 270.336 315.607 270.242V272C315.036 272.156 314.482 272.234 313.943 272.234C312.974 272.234 312.243 271.941 311.751 271.355C311.259 270.77 311.013 269.938 311.013 268.859V260.996H308.704V259.32H311.013V256.25H313.181ZM328.975 259.32L329.045 260.914C330.014 259.695 331.28 259.086 332.842 259.086C335.522 259.086 336.873 260.598 336.897 263.621V272H334.729V263.609C334.721 262.695 334.51 262.02 334.096 261.582C333.69 261.145 333.053 260.926 332.186 260.926C331.483 260.926 330.865 261.113 330.334 261.488C329.803 261.863 329.389 262.355 329.092 262.965V272H326.924V259.32H328.975ZM341.032 265.543C341.032 264.301 341.274 263.184 341.759 262.191C342.251 261.199 342.93 260.434 343.798 259.895C344.673 259.355 345.669 259.086 346.786 259.086C348.513 259.086 349.907 259.684 350.97 260.879C352.04 262.074 352.575 263.664 352.575 265.648V265.801C352.575 267.035 352.337 268.145 351.86 269.129C351.391 270.105 350.716 270.867 349.833 271.414C348.958 271.961 347.95 272.234 346.809 272.234C345.091 272.234 343.696 271.637 342.626 270.441C341.563 269.246 341.032 267.664 341.032 265.695V265.543ZM343.212 265.801C343.212 267.207 343.536 268.336 344.184 269.188C344.841 270.039 345.716 270.465 346.809 270.465C347.911 270.465 348.786 270.035 349.434 269.176C350.083 268.309 350.407 267.098 350.407 265.543C350.407 264.152 350.075 263.027 349.411 262.168C348.755 261.301 347.88 260.867 346.786 260.867C345.716 260.867 344.852 261.293 344.196 262.145C343.54 262.996 343.212 264.215 343.212 265.801ZM359.675 256.25V259.32H362.042V260.996H359.675V268.859C359.675 269.367 359.781 269.75 359.992 270.008C360.202 270.258 360.562 270.383 361.07 270.383C361.32 270.383 361.663 270.336 362.101 270.242V272C361.531 272.156 360.976 272.234 360.437 272.234C359.468 272.234 358.738 271.941 358.245 271.355C357.753 270.77 357.507 269.938 357.507 268.859V260.996H355.199V259.32H357.507V256.25H359.675ZM384.153 265.801C384.153 267.738 383.708 269.297 382.817 270.477C381.926 271.648 380.731 272.234 379.231 272.234C377.629 272.234 376.391 271.668 375.516 270.535L375.411 272H373.418V254H375.586V260.715C376.461 259.629 377.668 259.086 379.208 259.086C380.747 259.086 381.954 259.668 382.829 260.832C383.711 261.996 384.153 263.59 384.153 265.613V265.801ZM381.985 265.555C381.985 264.078 381.7 262.938 381.129 262.133C380.559 261.328 379.739 260.926 378.668 260.926C377.239 260.926 376.211 261.59 375.586 262.918V268.402C376.25 269.73 377.286 270.395 378.692 270.395C379.731 270.395 380.54 269.992 381.118 269.188C381.696 268.383 381.985 267.172 381.985 265.555ZM387.761 265.543C387.761 264.301 388.003 263.184 388.487 262.191C388.98 261.199 389.659 260.434 390.526 259.895C391.401 259.355 392.397 259.086 393.515 259.086C395.241 259.086 396.636 259.684 397.698 260.879C398.769 262.074 399.304 263.664 399.304 265.648V265.801C399.304 267.035 399.065 268.145 398.589 269.129C398.12 270.105 397.444 270.867 396.562 271.414C395.687 271.961 394.679 272.234 393.538 272.234C391.819 272.234 390.425 271.637 389.355 270.441C388.292 269.246 387.761 267.664 387.761 265.695V265.543ZM389.94 265.801C389.94 267.207 390.265 268.336 390.913 269.188C391.569 270.039 392.444 270.465 393.538 270.465C394.64 270.465 395.515 270.035 396.163 269.176C396.812 268.309 397.136 267.098 397.136 265.543C397.136 264.152 396.804 263.027 396.14 262.168C395.483 261.301 394.608 260.867 393.515 260.867C392.444 260.867 391.581 261.293 390.925 262.145C390.269 262.996 389.94 264.215 389.94 265.801ZM406.404 256.25V259.32H408.771V260.996H406.404V268.859C406.404 269.367 406.509 269.75 406.72 270.008C406.931 270.258 407.291 270.383 407.798 270.383C408.048 270.383 408.392 270.336 408.83 270.242V272C408.259 272.156 407.705 272.234 407.166 272.234C406.197 272.234 405.466 271.941 404.974 271.355C404.482 270.77 404.236 269.938 404.236 268.859V260.996H401.927V259.32H404.236V256.25H406.404ZM414.922 260.855C415.883 259.676 417.133 259.086 418.672 259.086C421.352 259.086 422.703 260.598 422.727 263.621V272H420.559V263.609C420.551 262.695 420.34 262.02 419.926 261.582C419.52 261.145 418.883 260.926 418.016 260.926C417.313 260.926 416.695 261.113 416.164 261.488C415.633 261.863 415.219 262.355 414.922 262.965V272H412.754V254H414.922V260.855ZM442.634 272C442.509 271.75 442.408 271.305 442.329 270.664C441.322 271.711 440.118 272.234 438.72 272.234C437.47 272.234 436.443 271.883 435.638 271.18C434.841 270.469 434.443 269.57 434.443 268.484C434.443 267.164 434.943 266.141 435.943 265.414C436.95 264.68 438.365 264.312 440.185 264.312H442.294V263.316C442.294 262.559 442.068 261.957 441.615 261.512C441.161 261.059 440.493 260.832 439.611 260.832C438.837 260.832 438.189 261.027 437.665 261.418C437.142 261.809 436.88 262.281 436.88 262.836H434.7C434.7 262.203 434.923 261.594 435.368 261.008C435.822 260.414 436.431 259.945 437.197 259.602C437.97 259.258 438.818 259.086 439.74 259.086C441.2 259.086 442.345 259.453 443.173 260.188C444.001 260.914 444.431 261.918 444.462 263.199V269.035C444.462 270.199 444.611 271.125 444.908 271.812V272H442.634ZM439.036 270.348C439.716 270.348 440.361 270.172 440.97 269.82C441.579 269.469 442.021 269.012 442.294 268.449V265.848H440.595C437.939 265.848 436.611 266.625 436.611 268.18C436.611 268.859 436.837 269.391 437.29 269.773C437.743 270.156 438.325 270.348 439.036 270.348ZM452.242 256.25V259.32H454.609V260.996H452.242V268.859C452.242 269.367 452.348 269.75 452.558 270.008C452.769 270.258 453.129 270.383 453.637 270.383C453.887 270.383 454.23 270.336 454.668 270.242V272C454.098 272.156 453.543 272.234 453.004 272.234C452.035 272.234 451.305 271.941 450.812 271.355C450.32 270.77 450.074 269.938 450.074 268.859V260.996H447.765V259.32H450.074V256.25H452.242ZM468.927 256.25V259.32H471.294V260.996H468.927V268.859C468.927 269.367 469.032 269.75 469.243 270.008C469.454 270.258 469.813 270.383 470.321 270.383C470.571 270.383 470.915 270.336 471.353 270.242V272C470.782 272.156 470.228 272.234 469.688 272.234C468.72 272.234 467.989 271.941 467.497 271.355C467.005 270.77 466.759 269.938 466.759 268.859V260.996H464.45V259.32H466.759V256.25H468.927ZM477.445 260.855C478.406 259.676 479.656 259.086 481.195 259.086C483.875 259.086 485.226 260.598 485.25 263.621V272H483.082V263.609C483.074 262.695 482.863 262.02 482.449 261.582C482.042 261.145 481.406 260.926 480.539 260.926C479.835 260.926 479.218 261.113 478.687 261.488C478.156 261.863 477.742 262.355 477.445 262.965V272H475.277V254H477.445V260.855ZM495.197 272.234C493.479 272.234 492.08 271.672 491.002 270.547C489.924 269.414 489.385 267.902 489.385 266.012V265.613C489.385 264.355 489.623 263.234 490.1 262.25C490.584 261.258 491.256 260.484 492.115 259.93C492.982 259.367 493.92 259.086 494.928 259.086C496.576 259.086 497.857 259.629 498.772 260.715C499.686 261.801 500.143 263.355 500.143 265.379V266.281H491.553C491.584 267.531 491.947 268.543 492.643 269.316C493.346 270.082 494.236 270.465 495.315 270.465C496.08 270.465 496.729 270.309 497.26 269.996C497.791 269.684 498.256 269.27 498.654 268.754L499.979 269.785C498.916 271.418 497.322 272.234 495.197 272.234ZM494.928 260.867C494.053 260.867 493.318 261.188 492.725 261.828C492.131 262.461 491.764 263.352 491.623 264.5H497.975V264.336C497.912 263.234 497.615 262.383 497.084 261.781C496.553 261.172 495.834 260.867 494.928 260.867ZM518.878 268.637C518.878 268.051 518.655 267.598 518.21 267.277C517.773 266.949 517.003 266.668 515.902 266.434C514.808 266.199 513.937 265.918 513.288 265.59C512.648 265.262 512.171 264.871 511.859 264.418C511.554 263.965 511.402 263.426 511.402 262.801C511.402 261.762 511.839 260.883 512.714 260.164C513.597 259.445 514.722 259.086 516.089 259.086C517.527 259.086 518.691 259.457 519.581 260.199C520.48 260.941 520.929 261.891 520.929 263.047H518.749C518.749 262.453 518.495 261.941 517.988 261.512C517.488 261.082 516.855 260.867 516.089 260.867C515.3 260.867 514.683 261.039 514.238 261.383C513.792 261.727 513.57 262.176 513.57 262.73C513.57 263.254 513.777 263.648 514.191 263.914C514.605 264.18 515.351 264.434 516.429 264.676C517.515 264.918 518.394 265.207 519.066 265.543C519.738 265.879 520.234 266.285 520.554 266.762C520.882 267.23 521.046 267.805 521.046 268.484C521.046 269.617 520.593 270.527 519.687 271.215C518.78 271.895 517.605 272.234 516.159 272.234C515.144 272.234 514.245 272.055 513.464 271.695C512.683 271.336 512.07 270.836 511.624 270.195C511.187 269.547 510.968 268.848 510.968 268.098H513.136C513.175 268.824 513.464 269.402 514.003 269.832C514.55 270.254 515.269 270.465 516.159 270.465C516.98 270.465 517.636 270.301 518.128 269.973C518.628 269.637 518.878 269.191 518.878 268.637ZM533.138 272C533.013 271.75 532.912 271.305 532.834 270.664C531.826 271.711 530.623 272.234 529.224 272.234C527.974 272.234 526.947 271.883 526.142 271.18C525.345 270.469 524.947 269.57 524.947 268.484C524.947 267.164 525.447 266.141 526.447 265.414C527.455 264.68 528.869 264.312 530.689 264.312H532.799V263.316C532.799 262.559 532.572 261.957 532.119 261.512C531.666 261.059 530.998 260.832 530.115 260.832C529.342 260.832 528.693 261.027 528.17 261.418C527.646 261.809 527.385 262.281 527.385 262.836H525.205C525.205 262.203 525.428 261.594 525.873 261.008C526.326 260.414 526.935 259.945 527.701 259.602C528.474 259.258 529.322 259.086 530.244 259.086C531.705 259.086 532.849 259.453 533.678 260.188C534.506 260.914 534.935 261.918 534.967 263.199V269.035C534.967 270.199 535.115 271.125 535.412 271.812V272H533.138ZM529.541 270.348C530.22 270.348 530.865 270.172 531.474 269.82C532.084 269.469 532.525 269.012 532.799 268.449V265.848H531.099C528.443 265.848 527.115 266.625 527.115 268.18C527.115 268.859 527.342 269.391 527.795 269.773C528.248 270.156 528.83 270.348 529.541 270.348ZM541.844 259.32L541.903 260.727C542.832 259.633 544.086 259.086 545.664 259.086C547.438 259.086 548.645 259.766 549.285 261.125C549.707 260.516 550.254 260.023 550.926 259.648C551.606 259.273 552.407 259.086 553.328 259.086C556.11 259.086 557.524 260.559 557.571 263.504V272H555.403V263.633C555.403 262.727 555.196 262.051 554.782 261.605C554.367 261.152 553.672 260.926 552.696 260.926C551.891 260.926 551.223 261.168 550.692 261.652C550.16 262.129 549.852 262.773 549.766 263.586V272H547.586V263.691C547.586 261.848 546.684 260.926 544.879 260.926C543.457 260.926 542.485 261.531 541.961 262.742V272H539.793V259.32H541.844ZM567.554 272.234C565.835 272.234 564.436 271.672 563.358 270.547C562.28 269.414 561.741 267.902 561.741 266.012V265.613C561.741 264.355 561.979 263.234 562.456 262.25C562.94 261.258 563.612 260.484 564.472 259.93C565.339 259.367 566.276 259.086 567.284 259.086C568.932 259.086 570.214 259.629 571.128 260.715C572.042 261.801 572.499 263.355 572.499 265.379V266.281H563.909C563.94 267.531 564.304 268.543 564.999 269.316C565.702 270.082 566.593 270.465 567.671 270.465C568.436 270.465 569.085 270.309 569.616 269.996C570.147 269.684 570.612 269.27 571.011 268.754L572.335 269.785C571.272 271.418 569.679 272.234 567.554 272.234ZM567.284 260.867C566.409 260.867 565.675 261.188 565.081 261.828C564.487 262.461 564.12 263.352 563.979 264.5H570.331V264.336C570.268 263.234 569.972 262.383 569.44 261.781C568.909 261.172 568.19 260.867 567.284 260.867ZM283.582 284.25V287.32H285.949V288.996H283.582V296.859C283.582 297.367 283.688 297.75 283.898 298.008C284.109 298.258 284.469 298.383 284.977 298.383C285.227 298.383 285.57 298.336 286.008 298.242V300C285.438 300.156 284.883 300.234 284.344 300.234C283.375 300.234 282.645 299.941 282.152 299.355C281.66 298.77 281.414 297.938 281.414 296.859V288.996H279.105V287.32H281.414V284.25H283.582ZM292.288 300H290.12V287.32H292.288V300ZM289.944 283.957C289.944 283.605 290.049 283.309 290.26 283.066C290.479 282.824 290.799 282.703 291.221 282.703C291.643 282.703 291.963 282.824 292.182 283.066C292.401 283.309 292.51 283.605 292.51 283.957C292.51 284.309 292.401 284.602 292.182 284.836C291.963 285.07 291.643 285.188 291.221 285.188C290.799 285.188 290.479 285.07 290.26 284.836C290.049 284.602 289.944 284.309 289.944 283.957ZM299.247 287.32L299.306 288.727C300.235 287.633 301.489 287.086 303.068 287.086C304.841 287.086 306.048 287.766 306.689 289.125C307.11 288.516 307.657 288.023 308.329 287.648C309.009 287.273 309.81 287.086 310.732 287.086C313.513 287.086 314.927 288.559 314.974 291.504V300H312.806V291.633C312.806 290.727 312.599 290.051 312.185 289.605C311.771 289.152 311.075 288.926 310.099 288.926C309.294 288.926 308.626 289.168 308.095 289.652C307.564 290.129 307.255 290.773 307.169 291.586V300H304.989V291.691C304.989 289.848 304.087 288.926 302.282 288.926C300.86 288.926 299.888 289.531 299.364 290.742V300H297.196V287.32H299.247ZM324.957 300.234C323.238 300.234 321.84 299.672 320.761 298.547C319.683 297.414 319.144 295.902 319.144 294.012V293.613C319.144 292.355 319.382 291.234 319.859 290.25C320.343 289.258 321.015 288.484 321.875 287.93C322.742 287.367 323.679 287.086 324.687 287.086C326.336 287.086 327.617 287.629 328.531 288.715C329.445 289.801 329.902 291.355 329.902 293.379V294.281H321.312C321.343 295.531 321.707 296.543 322.402 297.316C323.105 298.082 323.996 298.465 325.074 298.465C325.84 298.465 326.488 298.309 327.019 297.996C327.55 297.684 328.015 297.27 328.414 296.754L329.738 297.785C328.675 299.418 327.082 300.234 324.957 300.234ZM324.687 288.867C323.812 288.867 323.078 289.188 322.484 289.828C321.89 290.461 321.523 291.352 321.382 292.5H327.734V292.336C327.672 291.234 327.375 290.383 326.843 289.781C326.312 289.172 325.593 288.867 324.687 288.867Z" fill="white"/>
<path d="M219.008 65.3945C217.078 64.8398 215.672 64.1602 214.789 63.3555C213.914 62.543 213.477 61.543 213.477 60.3555C213.477 59.0117 214.012 57.9023 215.082 57.0273C216.16 56.1445 217.559 55.7031 219.277 55.7031C220.449 55.7031 221.492 55.9297 222.406 56.3828C223.328 56.8359 224.039 57.4609 224.539 58.2578C225.047 59.0547 225.301 59.9258 225.301 60.8711H223.039C223.039 59.8398 222.711 59.0312 222.055 58.4453C221.398 57.8516 220.473 57.5547 219.277 57.5547C218.168 57.5547 217.301 57.8008 216.676 58.293C216.059 58.7773 215.75 59.4531 215.75 60.3203C215.75 61.0156 216.043 61.6055 216.629 62.0898C217.223 62.5664 218.227 63.0039 219.641 63.4023C221.062 63.8008 222.172 64.2422 222.969 64.7266C223.773 65.2031 224.367 65.7617 224.75 66.4023C225.141 67.043 225.336 67.7969 225.336 68.6641C225.336 70.0469 224.797 71.1562 223.719 71.9922C222.641 72.8203 221.199 73.2344 219.395 73.2344C218.223 73.2344 217.129 73.0117 216.113 72.5664C215.098 72.1133 214.312 71.4961 213.758 70.7148C213.211 69.9336 212.938 69.0469 212.938 68.0547H215.199C215.199 69.0859 215.578 69.9023 216.336 70.5039C217.102 71.0977 218.121 71.3945 219.395 71.3945C220.582 71.3945 221.492 71.1523 222.125 70.668C222.758 70.1836 223.074 69.5234 223.074 68.6875C223.074 67.8516 222.781 67.207 222.195 66.7539C221.609 66.293 220.547 65.8398 219.008 65.3945ZM228.756 66.543C228.756 65.3008 228.999 64.1836 229.483 63.1914C229.975 62.1992 230.655 61.4336 231.522 60.8945C232.397 60.3555 233.393 60.0859 234.51 60.0859C236.237 60.0859 237.631 60.6836 238.694 61.8789C239.764 63.0742 240.299 64.6641 240.299 66.6484V66.8008C240.299 68.0352 240.061 69.1445 239.585 70.1289C239.116 71.1055 238.44 71.8672 237.557 72.4141C236.682 72.9609 235.674 73.2344 234.534 73.2344C232.815 73.2344 231.42 72.6367 230.35 71.4414C229.288 70.2461 228.756 68.6641 228.756 66.6953V66.543ZM230.936 66.8008C230.936 68.207 231.26 69.3359 231.909 70.1875C232.565 71.0391 233.44 71.4648 234.534 71.4648C235.635 71.4648 236.51 71.0352 237.159 70.1758C237.807 69.3086 238.131 68.0977 238.131 66.543C238.131 65.1523 237.799 64.0273 237.135 63.168C236.479 62.3008 235.604 61.8672 234.51 61.8672C233.44 61.8672 232.577 62.293 231.92 63.1445C231.264 63.9961 230.936 65.2148 230.936 66.8008ZM244.388 76.3984L243.157 75.5547C243.892 74.5312 244.275 73.4766 244.306 72.3906V70.4336H246.427V72.1328C246.427 72.9219 246.232 73.7109 245.841 74.5C245.458 75.2891 244.974 75.9219 244.388 76.3984ZM262.022 67.6211L262.35 69.8711L262.83 67.8438L266.205 55.9375H268.104L271.397 67.8438L271.865 69.9062L272.229 67.6094L274.877 55.9375H277.139L273.002 73H270.951L267.436 60.5664L267.166 59.2656L266.897 60.5664L263.252 73H261.201L257.076 55.9375H259.326L262.022 67.6211ZM282.915 61.8555C283.876 60.6758 285.126 60.0859 286.665 60.0859C289.345 60.0859 290.696 61.5977 290.72 64.6211V73H288.552V64.6094C288.544 63.6953 288.333 63.0195 287.919 62.582C287.512 62.1445 286.876 61.9258 286.009 61.9258C285.305 61.9258 284.688 62.1133 284.157 62.4883C283.626 62.8633 283.212 63.3555 282.915 63.9648V73H280.747V55H282.915V61.8555ZM303.234 73C303.109 72.75 303.007 72.3047 302.929 71.6641C301.921 72.7109 300.718 73.2344 299.32 73.2344C298.07 73.2344 297.042 72.8828 296.238 72.1797C295.441 71.4688 295.042 70.5703 295.042 69.4844C295.042 68.1641 295.542 67.1406 296.542 66.4141C297.55 65.6797 298.964 65.3125 300.785 65.3125H302.894V64.3164C302.894 63.5586 302.667 62.957 302.214 62.5117C301.761 62.0586 301.093 61.832 300.21 61.832C299.437 61.832 298.788 62.0273 298.265 62.418C297.742 62.8086 297.48 63.2812 297.48 63.8359H295.3C295.3 63.2031 295.523 62.5938 295.968 62.0078C296.421 61.4141 297.031 60.9453 297.796 60.6016C298.57 60.2578 299.417 60.0859 300.339 60.0859C301.8 60.0859 302.945 60.4531 303.773 61.1875C304.601 61.9141 305.031 62.918 305.062 64.1992V70.0352C305.062 71.1992 305.21 72.125 305.507 72.8125V73H303.234ZM299.636 71.3477C300.316 71.3477 300.96 71.1719 301.57 70.8203C302.179 70.4688 302.62 70.0117 302.894 69.4492V66.8477H301.195C298.538 66.8477 297.21 67.625 297.21 69.1797C297.21 69.8594 297.437 70.3906 297.89 70.7734C298.343 71.1562 298.925 71.3477 299.636 71.3477ZM312.842 57.25V60.3203H315.209V61.9961H312.842V69.8594C312.842 70.3672 312.947 70.75 313.158 71.0078C313.369 71.2578 313.728 71.3828 314.236 71.3828C314.486 71.3828 314.83 71.3359 315.268 71.2422V73C314.697 73.1562 314.143 73.2344 313.603 73.2344C312.635 73.2344 311.904 72.9414 311.412 72.3555C310.92 71.7695 310.674 70.9375 310.674 69.8594V61.9961H308.365V60.3203H310.674V57.25H312.842ZM329.339 73H327.089V55.9375H329.339V73ZM341.947 69.6367C341.947 69.0508 341.724 68.5977 341.279 68.2773C340.841 67.9492 340.072 67.668 338.97 67.4336C337.877 67.1992 337.005 66.918 336.357 66.5898C335.716 66.2617 335.24 65.8711 334.927 65.418C334.623 64.9648 334.47 64.4258 334.47 63.8008C334.47 62.7617 334.908 61.8828 335.783 61.1641C336.666 60.4453 337.791 60.0859 339.158 60.0859C340.595 60.0859 341.759 60.457 342.65 61.1992C343.548 61.9414 343.998 62.8906 343.998 64.0469H341.818C341.818 63.4531 341.564 62.9414 341.056 62.5117C340.556 62.082 339.923 61.8672 339.158 61.8672C338.369 61.8672 337.752 62.0391 337.306 62.3828C336.861 62.7266 336.638 63.1758 336.638 63.7305C336.638 64.2539 336.845 64.6484 337.259 64.9141C337.673 65.1797 338.42 65.4336 339.498 65.6758C340.584 65.918 341.463 66.207 342.134 66.543C342.806 66.8789 343.302 67.2852 343.623 67.7617C343.951 68.2305 344.115 68.8047 344.115 69.4844C344.115 70.6172 343.662 71.5273 342.755 72.2148C341.849 72.8945 340.673 73.2344 339.228 73.2344C338.213 73.2344 337.314 73.0547 336.533 72.6953C335.752 72.3359 335.138 71.8359 334.693 71.1953C334.255 70.5469 334.037 69.8477 334.037 69.0977H336.205C336.244 69.8242 336.533 70.4023 337.072 70.832C337.619 71.2539 338.338 71.4648 339.228 71.4648C340.048 71.4648 340.705 71.3008 341.197 70.9727C341.697 70.6367 341.947 70.1914 341.947 69.6367ZM365.522 65.4648H358.362V73H356.112V55.9375H366.682V57.7891H358.362V63.625H365.522V65.4648ZM372.833 73H370.665V55H372.833V73ZM383.015 73.2344C381.297 73.2344 379.898 72.6719 378.82 71.5469C377.742 70.4141 377.203 68.9023 377.203 67.0117V66.6133C377.203 65.3555 377.441 64.2344 377.918 63.25C378.402 62.2578 379.074 61.4844 379.933 60.9297C380.801 60.3672 381.738 60.0859 382.746 60.0859C384.394 60.0859 385.676 60.6289 386.59 61.7148C387.504 62.8008 387.961 64.3555 387.961 66.3789V67.2812H379.371C379.402 68.5312 379.765 69.543 380.461 70.3164C381.164 71.082 382.055 71.4648 383.133 71.4648C383.898 71.4648 384.547 71.3086 385.078 70.9961C385.609 70.6836 386.074 70.2695 386.473 69.7539L387.797 70.7852C386.734 72.418 385.14 73.2344 383.015 73.2344ZM382.746 61.8672C381.871 61.8672 381.137 62.1875 380.543 62.8281C379.949 63.4609 379.582 64.3516 379.441 65.5H385.793V65.3359C385.73 64.2344 385.433 63.3828 384.902 62.7812C384.371 62.1719 383.652 61.8672 382.746 61.8672ZM396.174 64.9492L398.987 60.3203H401.518L397.37 66.5898L401.647 73H399.139L396.209 68.2539L393.28 73H390.76L395.038 66.5898L390.889 60.3203H393.397L396.174 64.9492ZM416.001 66.8008C416.001 68.7383 415.556 70.2969 414.665 71.4766C413.774 72.6484 412.579 73.2344 411.079 73.2344C409.478 73.2344 408.239 72.668 407.364 71.5352L407.259 73H405.267V55H407.435V61.7148C408.31 60.6289 409.517 60.0859 411.056 60.0859C412.595 60.0859 413.802 60.668 414.677 61.832C415.56 62.9961 416.001 64.5898 416.001 66.6133V66.8008ZM413.833 66.5547C413.833 65.0781 413.548 63.9375 412.978 63.1328C412.407 62.3281 411.587 61.9258 410.517 61.9258C409.087 61.9258 408.06 62.5898 407.435 63.918V69.4023C408.099 70.7305 409.134 71.3945 410.54 71.3945C411.579 71.3945 412.388 70.9922 412.966 70.1875C413.544 69.3828 413.833 68.1719 413.833 66.5547ZM419.609 66.543C419.609 65.3008 419.851 64.1836 420.335 63.1914C420.828 62.1992 421.507 61.4336 422.375 60.8945C423.25 60.3555 424.246 60.0859 425.363 60.0859C427.089 60.0859 428.484 60.6836 429.546 61.8789C430.617 63.0742 431.152 64.6641 431.152 66.6484V66.8008C431.152 68.0352 430.914 69.1445 430.437 70.1289C429.968 71.1055 429.292 71.8672 428.41 72.4141C427.535 72.9609 426.527 73.2344 425.386 73.2344C423.667 73.2344 422.273 72.6367 421.203 71.4414C420.14 70.2461 419.609 68.6641 419.609 66.6953V66.543ZM421.789 66.8008C421.789 68.207 422.113 69.3359 422.761 70.1875C423.417 71.0391 424.292 71.4648 425.386 71.4648C426.488 71.4648 427.363 71.0352 428.011 70.1758C428.66 69.3086 428.984 68.0977 428.984 66.543C428.984 65.1523 428.652 64.0273 427.988 63.168C427.332 62.3008 426.457 61.8672 425.363 61.8672C424.292 61.8672 423.429 62.293 422.773 63.1445C422.117 63.9961 421.789 65.2148 421.789 66.8008ZM439.307 64.9492L442.119 60.3203H444.65L440.502 66.5898L444.779 73H442.272L439.342 68.2539L436.412 73H433.893L438.17 66.5898L434.022 60.3203H436.529L439.307 64.9492ZM450.942 68.1953C450.958 67.2656 451.063 66.5312 451.258 65.9922C451.454 65.4531 451.852 64.8555 452.454 64.1992L453.989 62.6172C454.645 61.875 454.973 61.0781 454.973 60.2266C454.973 59.4062 454.758 58.7656 454.329 58.3047C453.899 57.8359 453.274 57.6016 452.454 57.6016C451.657 57.6016 451.016 57.8125 450.532 58.2344C450.048 58.6562 449.805 59.2227 449.805 59.9336H447.637C447.653 58.668 448.102 57.6484 448.985 56.875C449.876 56.0938 451.032 55.7031 452.454 55.7031C453.93 55.7031 455.079 56.1016 455.899 56.8984C456.727 57.6875 457.141 58.7734 457.141 60.1562C457.141 61.5234 456.508 62.8711 455.243 64.1992L453.965 65.4648C453.395 66.0977 453.11 67.0078 453.11 68.1953H450.942ZM450.848 71.9102C450.848 71.5586 450.954 71.2656 451.165 71.0312C451.383 70.7891 451.704 70.668 452.126 70.668C452.548 70.668 452.868 70.7891 453.087 71.0312C453.305 71.2656 453.415 71.5586 453.415 71.9102C453.415 72.2617 453.305 72.5547 453.087 72.7891C452.868 73.0156 452.548 73.1289 452.126 73.1289C451.704 73.1289 451.383 73.0156 451.165 72.7891C450.954 72.5547 450.848 72.2617 450.848 71.9102Z" fill="white"/>
<path d="M599.477 14.8418C599.354 15.8945 598.964 16.708 598.308 17.2822C597.656 17.8519 596.788 18.1367 595.703 18.1367C594.527 18.1367 593.584 17.7152 592.873 16.8721C592.167 16.029 591.813 14.901 591.813 13.4883V12.5312C591.813 11.6061 591.978 10.7926 592.306 10.0908C592.638 9.389 593.108 8.85124 593.714 8.47754C594.32 8.09928 595.022 7.91016 595.819 7.91016C596.877 7.91016 597.724 8.20638 598.362 8.79883C599 9.38672 599.372 10.2025 599.477 11.2461H598.157C598.043 10.4531 597.795 9.87891 597.412 9.52344C597.034 9.16797 596.503 8.99023 595.819 8.99023C594.981 8.99023 594.322 9.30013 593.844 9.91992C593.37 10.5397 593.133 11.4215 593.133 12.5654V13.5293C593.133 14.6094 593.358 15.4684 593.81 16.1064C594.261 16.7445 594.892 17.0635 595.703 17.0635C596.432 17.0635 596.991 16.8994 597.378 16.5713C597.77 16.2386 598.03 15.6621 598.157 14.8418H599.477ZM601.581 14.2334C601.581 13.5088 601.722 12.8571 602.005 12.2783C602.292 11.6995 602.689 11.2529 603.194 10.9385C603.705 10.624 604.286 10.4668 604.938 10.4668C605.945 10.4668 606.758 10.8154 607.378 11.5127C608.002 12.21 608.315 13.1374 608.315 14.2949V14.3838C608.315 15.1038 608.176 15.751 607.898 16.3252C607.624 16.8949 607.23 17.3392 606.715 17.6582C606.205 17.9772 605.617 18.1367 604.951 18.1367C603.949 18.1367 603.135 17.7881 602.511 17.0908C601.891 16.3936 601.581 15.4707 601.581 14.3223V14.2334ZM602.853 14.3838C602.853 15.2041 603.042 15.8626 603.42 16.3594C603.803 16.8561 604.313 17.1045 604.951 17.1045C605.594 17.1045 606.104 16.8538 606.483 16.3525C606.861 15.8467 607.05 15.1403 607.05 14.2334C607.05 13.4222 606.856 12.766 606.469 12.2646C606.086 11.7588 605.576 11.5059 604.938 11.5059C604.313 11.5059 603.81 11.7542 603.427 12.251C603.044 12.7477 602.853 13.4587 602.853 14.3838ZM611.937 10.6035L611.978 11.5332C612.543 10.8223 613.281 10.4668 614.193 10.4668C615.756 10.4668 616.544 11.3486 616.558 13.1123V18H615.293V13.1055C615.289 12.5723 615.166 12.1781 614.924 11.9229C614.687 11.6676 614.316 11.54 613.81 11.54C613.4 11.54 613.04 11.6494 612.73 11.8682C612.42 12.0869 612.178 12.374 612.005 12.7295V18H610.741V10.6035H611.937ZM621.021 8.8125V10.6035H622.402V11.5811H621.021V16.168C621.021 16.4642 621.083 16.6875 621.206 16.8379C621.329 16.9837 621.538 17.0566 621.834 17.0566C621.98 17.0566 622.181 17.0293 622.436 16.9746V18C622.103 18.0911 621.78 18.1367 621.465 18.1367C620.9 18.1367 620.474 17.9658 620.187 17.624C619.9 17.2822 619.756 16.7969 619.756 16.168V11.5811H618.41V10.6035H619.756V8.8125H621.021ZM629.292 18C629.219 17.8542 629.159 17.5944 629.114 17.2207C628.526 17.8314 627.824 18.1367 627.008 18.1367C626.279 18.1367 625.68 17.9316 625.211 17.5215C624.746 17.1068 624.513 16.5827 624.513 15.9492C624.513 15.179 624.805 14.582 625.388 14.1582C625.976 13.7298 626.801 13.5156 627.863 13.5156H629.093V12.9346C629.093 12.4925 628.961 12.1416 628.697 11.8818C628.433 11.6175 628.043 11.4854 627.528 11.4854C627.077 11.4854 626.699 11.5993 626.393 11.8271C626.088 12.055 625.935 12.3307 625.935 12.6543H624.664C624.664 12.2852 624.794 11.9297 625.053 11.5879C625.318 11.2415 625.673 10.9681 626.12 10.7676C626.571 10.5671 627.065 10.4668 627.603 10.4668C628.455 10.4668 629.123 10.681 629.606 11.1094C630.089 11.5332 630.34 12.1188 630.358 12.8662V16.2705C630.358 16.9495 630.445 17.4896 630.618 17.8906V18H629.292ZM627.193 17.0361C627.589 17.0361 627.965 16.9336 628.321 16.7285C628.676 16.5234 628.934 16.2568 629.093 15.9287V14.4111H628.102C626.553 14.4111 625.778 14.8646 625.778 15.7715C625.778 16.168 625.91 16.4779 626.174 16.7012C626.439 16.9245 626.778 17.0361 627.193 17.0361ZM634.554 18H633.29V10.6035H634.554V18ZM633.187 8.6416C633.187 8.43652 633.249 8.26335 633.372 8.12207C633.499 7.98079 633.686 7.91016 633.932 7.91016C634.179 7.91016 634.365 7.98079 634.493 8.12207C634.621 8.26335 634.684 8.43652 634.684 8.6416C634.684 8.84668 634.621 9.01758 634.493 9.1543C634.365 9.29102 634.179 9.35938 633.932 9.35938C633.686 9.35938 633.499 9.29102 633.372 9.1543C633.249 9.01758 633.187 8.84668 633.187 8.6416ZM638.621 10.6035L638.662 11.5332C639.227 10.8223 639.965 10.4668 640.877 10.4668C642.44 10.4668 643.228 11.3486 643.242 13.1123V18H641.978V13.1055C641.973 12.5723 641.85 12.1781 641.608 11.9229C641.371 11.6676 641 11.54 640.494 11.54C640.084 11.54 639.724 11.6494 639.414 11.8682C639.104 12.0869 638.863 12.374 638.689 12.7295V18H637.425V10.6035H638.621ZM649.059 18.1367C648.056 18.1367 647.24 17.8086 646.611 17.1523C645.983 16.4915 645.668 15.6097 645.668 14.5068V14.2744C645.668 13.5407 645.807 12.8867 646.085 12.3125C646.368 11.7337 646.76 11.2826 647.261 10.959C647.767 10.6309 648.314 10.4668 648.901 10.4668C649.863 10.4668 650.61 10.7835 651.144 11.417C651.677 12.0505 651.943 12.9574 651.943 14.1377V14.6641H646.933C646.951 15.3932 647.163 15.9834 647.568 16.4346C647.979 16.8812 648.498 17.1045 649.127 17.1045C649.574 17.1045 649.952 17.0133 650.262 16.8311C650.572 16.6488 650.843 16.4072 651.075 16.1064L651.848 16.708C651.228 17.6605 650.298 18.1367 649.059 18.1367ZM648.901 11.5059C648.391 11.5059 647.963 11.6927 647.616 12.0664C647.27 12.4355 647.056 12.9551 646.974 13.625H650.679V13.5293C650.642 12.8867 650.469 12.39 650.159 12.0391C649.849 11.6836 649.43 11.5059 648.901 11.5059ZM657.828 11.7383C657.637 11.7064 657.43 11.6904 657.206 11.6904C656.377 11.6904 655.814 12.0436 655.518 12.75V18H654.253V10.6035H655.484L655.504 11.458C655.919 10.7972 656.507 10.4668 657.268 10.4668C657.514 10.4668 657.701 10.4987 657.828 10.5625V11.7383Z" fill="#5B5050"/>
<path d="M569.645 387.604H565.468V392H564.155V382.047H570.321V383.127H565.468V386.531H569.645V387.604ZM573.909 392H572.645V381.5H573.909V392ZM579.849 392.137C578.846 392.137 578.031 391.809 577.402 391.152C576.773 390.492 576.458 389.61 576.458 388.507V388.274C576.458 387.541 576.597 386.887 576.875 386.312C577.158 385.734 577.55 385.283 578.051 384.959C578.557 384.631 579.104 384.467 579.692 384.467C580.653 384.467 581.401 384.784 581.934 385.417C582.467 386.05 582.734 386.957 582.734 388.138V388.664H577.723C577.741 389.393 577.953 389.983 578.359 390.435C578.769 390.881 579.288 391.104 579.917 391.104C580.364 391.104 580.742 391.013 581.052 390.831C581.362 390.649 581.633 390.407 581.866 390.106L582.638 390.708C582.018 391.66 581.089 392.137 579.849 392.137ZM579.692 385.506C579.181 385.506 578.753 385.693 578.407 386.066C578.06 386.436 577.846 386.955 577.764 387.625H581.469V387.529C581.433 386.887 581.259 386.39 580.95 386.039C580.64 385.684 580.22 385.506 579.692 385.506ZM587.525 387.304L589.166 384.604H590.642L588.222 388.261L590.717 392H589.254L587.545 389.231L585.836 392H584.367L586.862 388.261L584.442 384.604H585.905L587.525 387.304ZM598.748 392H597.435V382.047H598.748V392ZM603.512 382.812V384.604H604.893V385.581H603.512V390.168C603.512 390.464 603.573 390.688 603.696 390.838C603.819 390.984 604.029 391.057 604.325 391.057C604.471 391.057 604.672 391.029 604.927 390.975V392C604.594 392.091 604.27 392.137 603.956 392.137C603.391 392.137 602.965 391.966 602.678 391.624C602.391 391.282 602.247 390.797 602.247 390.168V385.581H600.9V384.604H602.247V382.812H603.512ZM610.285 392.137C609.283 392.137 608.467 391.809 607.838 391.152C607.209 390.492 606.895 389.61 606.895 388.507V388.274C606.895 387.541 607.034 386.887 607.312 386.312C607.594 385.734 607.986 385.283 608.487 384.959C608.993 384.631 609.54 384.467 610.128 384.467C611.09 384.467 611.837 384.784 612.37 385.417C612.903 386.05 613.17 386.957 613.17 388.138V388.664H608.159C608.178 389.393 608.389 389.983 608.795 390.435C609.205 390.881 609.725 391.104 610.354 391.104C610.8 391.104 611.179 391.013 611.488 390.831C611.798 390.649 612.069 390.407 612.302 390.106L613.074 390.708C612.455 391.66 611.525 392.137 610.285 392.137ZM610.128 385.506C609.618 385.506 609.189 385.693 608.843 386.066C608.497 386.436 608.282 386.955 608.2 387.625H611.905V387.529C611.869 386.887 611.696 386.39 611.386 386.039C611.076 385.684 610.657 385.506 610.128 385.506ZM616.669 384.604L616.703 385.424C617.246 384.786 617.977 384.467 618.898 384.467C619.932 384.467 620.636 384.863 621.01 385.656C621.256 385.301 621.575 385.014 621.967 384.795C622.364 384.576 622.831 384.467 623.368 384.467C624.991 384.467 625.816 385.326 625.843 387.044V392H624.578V387.119C624.578 386.59 624.458 386.196 624.216 385.937C623.975 385.672 623.569 385.54 622.999 385.54C622.53 385.54 622.14 385.681 621.83 385.964C621.52 386.242 621.34 386.618 621.29 387.092V392H620.019V387.153C620.019 386.078 619.492 385.54 618.44 385.54C617.61 385.54 617.043 385.893 616.738 386.6V392H615.473V384.604H616.669Z" fill="#F4EFEF"/>
</svg>
